<?xml version="1.0" encoding="UTF-8"?>
<svg version="1.1" xmlns="http://www.w3.org/2000/svg" width="856" height="115">
<path d="M0 0 C282.48 0 564.96 0 856 0 C856 37.95 856 75.9 856 115 C573.52 115 291.04 115 0 115 C0 77.05 0 39.1 0 0 Z " fill="#F2F6F8" transform="translate(0,0)"/>
<path d="M0 0 C282.48 0 564.96 0 856 0 C856 37.95 856 75.9 856 115 C573.52 115 291.04 115 0 115 C0 77.05 0 39.1 0 0 Z M12 6 C12 40.32 12 74.64 12 110 C286.89 110 561.78 110 845 110 C845 75.68 845 41.36 845 6 C570.11 6 295.22 6 12 6 Z " fill="#232B41" transform="translate(0,0)"/>
<path d="M0 0 C1.65 0.33 3.3 0.66 5 1 C5.33 2.32 5.66 3.64 6 5 C6.56203125 4.83628906 7.1240625 4.67257813 7.703125 4.50390625 C10.13059056 3.97135003 12.26889681 3.90101319 14.75 3.9375 C15.54921875 3.94652344 16.3484375 3.95554688 17.171875 3.96484375 C17.77515625 3.97644531 18.3784375 3.98804688 19 4 C19.66 5.32 20.32 6.64 21 8 C20.34 8 19.68 8 19 8 C19.99 8.66 20.98 9.32 22 10 C22 11.32 22 12.64 22 14 C19.29120665 15.35439668 16.99066732 15.06501451 14 15 C13.34 13.68 12.68 12.36 12 11 C12.99 11 13.98 11 15 11 C14.01 10.34 13.02 9.68 12 9 C12 8.01 12 7.02 12 6 C10.68 7.32 9.36 8.64 8 10 C9.32 11.65 10.64 13.3 12 15 C7.125 14.125 7.125 14.125 6 13 C5.67 13.66 5.34 14.32 5 15 C3.35 14.67 1.7 14.34 0 14 C0 11.69 0 9.38 0 7 C-0.99 7.33 -1.98 7.66 -3 8 C-3.33 10.31 -3.66 12.62 -4 15 C-5.65 14.67 -7.3 14.34 -9 14 C-9 10.7 -9 7.4 -9 4 C-6.36 4 -3.72 4 -1 4 C-0.67 2.68 -0.34 1.36 0 0 Z " fill="#173152" transform="translate(231,50)"/>
<path d="M0 0 C3.0625 0.3125 3.0625 0.3125 4.9375 1.8125 C5.30875 2.3075 5.68 2.8025 6.0625 3.3125 C6.3925 2.8175 6.7225 2.3225 7.0625 1.8125 C10.27232588 -0.59486941 13.12158683 0.05824754 17.0625 0.3125 C18.87369819 2.12369819 18.27768878 4.81031392 18.3125 7.25 C18.33828125 8.33152344 18.3640625 9.41304687 18.390625 10.52734375 C18.28234375 11.44644531 18.1740625 12.36554688 18.0625 13.3125 C14.83458445 15.4644437 13.77849191 15.51336443 10.0625 15.3125 C9.4025 13.9925 8.7425 12.6725 8.0625 11.3125 C8.3925 10.9825 8.7225 10.6525 9.0625 10.3125 C7.7425 10.3125 6.4225 10.3125 5.0625 10.3125 C4.7325 10.6425 4.4025 10.9725 4.0625 11.3125 C-1.17800633 11.7681962 -1.17800633 11.7681962 -3.8125 10.1875 C-5.44281294 7.47031176 -5.26765665 5.41597254 -4.9375 2.3125 C-2.9375 0.3125 -2.9375 0.3125 0 0 Z " fill="#374D68" transform="translate(122.9375,53.6875)"/>
<path d="M0 0 C3.66666667 0 7.33333333 0 11 0 C11.99 -0.061875 12.98 -0.12375 14 -0.1875 C17 0 17 0 18.875 1.0625 C20.58196395 4.00227124 20.18799766 6.67870803 20 10 C17.20129973 11.39935013 15.09501208 11.25265405 12 11 C10.125 9.8125 10.125 9.8125 9 8 C8.8125 5.3125 8.8125 5.3125 9 3 C8.01 3.33 7.02 3.66 6 4 C5.67 6.31 5.34 8.62 5 11 C3.35 10.67 1.7 10.34 0 10 C0 6.7 0 3.4 0 0 Z " fill="#143051" transform="translate(309,54)"/>
<path d="M0 0 C3.66666667 0 7.33333333 0 11 0 C11.99 -0.061875 12.98 -0.12375 14 -0.1875 C17 0 17 0 18.875 1.0625 C20.58196395 4.00227124 20.18799766 6.67870803 20 10 C17.20129973 11.39935013 15.09501208 11.25265405 12 11 C10.125 9.8125 10.125 9.8125 9 8 C8.8125 5.3125 8.8125 5.3125 9 3 C8.01 3.33 7.02 3.66 6 4 C5.67 6.31 5.34 8.62 5 11 C3.35 10.67 1.7 10.34 0 10 C0 6.7 0 3.4 0 0 Z " fill="#143051" transform="translate(80,54)"/>
<path d="M0 0 C2.475 0.495 2.475 0.495 5 1 C5.66 1.99 6.32 2.98 7 4 C7.99 2.68 8.98 1.36 10 0 C11.65 0.33 13.3 0.66 15 1 C15 5.29 15 9.58 15 14 C13.68 13.67 12.36 13.34 11 13 C10.67 12.01 10.34 11.02 10 10 C8.68 10 7.36 10 6 10 C5.67 9.67 5.34 9.34 5 9 C4.67 10.65 4.34 12.3 4 14 C2.68 13.67 1.36 13.34 0 13 C0 8.71 0 4.42 0 0 Z " fill="#0D294B" transform="translate(193,51)"/>
<path d="M0 0 C1.32 0.33 2.64 0.66 4 1 C4 1.99 4 2.98 4 4 C4.78375 4.12375 5.5675 4.2475 6.375 4.375 C9 5 9 5 11 7 C11.25 10 11.25 10 11 13 C9 15 9 15 6.8359375 15.1953125 C4.55729167 15.13020833 2.27864583 15.06510417 0 15 C0 10.05 0 5.1 0 0 Z " fill="#3D526C" transform="translate(350,50)"/>
<path d="M0 0 C1.32 0.33 2.64 0.66 4 1 C4 5.62 4 10.24 4 15 C-3.35678392 15.36180905 -3.35678392 15.36180905 -6 13.875 C-7.45670212 11.14368353 -7.32339354 9.03989923 -7 6 C-6.34 5.34 -5.68 4.68 -5 4 C-3.68 4 -2.36 4 -1 4 C-0.67 2.68 -0.34 1.36 0 0 Z " fill="#0E294A" transform="translate(484,50)"/>
<path d="M0 0 C1.32 0.33 2.64 0.66 4 1 C4 5.62 4 10.24 4 15 C-3.35678392 15.36180905 -3.35678392 15.36180905 -6 13.875 C-7.45670212 11.14368353 -7.32339354 9.03989923 -7 6 C-6.34 5.34 -5.68 4.68 -5 4 C-3.68 4 -2.36 4 -1 4 C-0.67 2.68 -0.34 1.36 0 0 Z " fill="#0E294A" transform="translate(465,50)"/>
<path d="M0 0 C1.32 0.33 2.64 0.66 4 1 C4 5.62 4 10.24 4 15 C-3.35678392 15.36180905 -3.35678392 15.36180905 -6 13.875 C-7.45670212 11.14368353 -7.32339354 9.03989923 -7 6 C-6.34 5.34 -5.68 4.68 -5 4 C-3.68 4 -2.36 4 -1 4 C-0.67 2.68 -0.34 1.36 0 0 Z " fill="#0E294A" transform="translate(337,50)"/>
<path d="M0 0 C3.5625 0.125 3.5625 0.125 5.5625 1.125 C5.5625 2.115 5.5625 3.105 5.5625 4.125 C2.5925 3.63 2.5925 3.63 -0.4375 3.125 C-0.4375 3.785 -0.4375 4.445 -0.4375 5.125 C1.5425 5.785 3.5225 6.445 5.5625 7.125 C5.5625 9.105 5.5625 11.085 5.5625 13.125 C2.60585481 14.6033226 -0.17979737 14.18532783 -3.4375 14.125 C-4.0975 12.805 -4.7575 11.485 -5.4375 10.125 C-3.1275 10.455 -0.8175 10.785 1.5625 11.125 C1.5625 10.465 1.5625 9.805 1.5625 9.125 C0.77875 9.00125 -0.005 8.8775 -0.8125 8.75 C-3.4375 8.125 -3.4375 8.125 -5.4375 6.125 C-4.71144209 0.17132517 -4.71144209 0.17132517 0 0 Z " fill="#1B3656" transform="translate(265.4375,50.875)"/>
<path d="M0 0 C3.5625 0.125 3.5625 0.125 5.5625 1.125 C5.5625 2.115 5.5625 3.105 5.5625 4.125 C2.5925 3.63 2.5925 3.63 -0.4375 3.125 C-0.4375 3.785 -0.4375 4.445 -0.4375 5.125 C1.5425 5.785 3.5225 6.445 5.5625 7.125 C5.5625 9.105 5.5625 11.085 5.5625 13.125 C2.60585481 14.6033226 -0.17979737 14.18532783 -3.4375 14.125 C-4.0975 12.805 -4.7575 11.485 -5.4375 10.125 C-3.1275 10.455 -0.8175 10.785 1.5625 11.125 C1.5625 10.465 1.5625 9.805 1.5625 9.125 C0.77875 9.00125 -0.005 8.8775 -0.8125 8.75 C-3.4375 8.125 -3.4375 8.125 -5.4375 6.125 C-4.71144209 0.17132517 -4.71144209 0.17132517 0 0 Z " fill="#1B3656" transform="translate(36.4375,50.875)"/>
<path d="M0 0 C1.32 0.33 2.64 0.66 4 1 C4 1.99 4 2.98 4 4 C4.804375 4.144375 5.60875 4.28875 6.4375 4.4375 C9 5 9 5 10 6 C10.07179964 7.51928038 10.08392007 9.04167482 10.0625 10.5625 C10.05347656 11.38878906 10.04445313 12.21507812 10.03515625 13.06640625 C10.02355469 13.70449219 10.01195312 14.34257813 10 15 C8.68 14.67 7.36 14.34 6 14 C5.67 12.02 5.34 10.04 5 8 C4.67 10.31 4.34 12.62 4 15 C2.68 15 1.36 15 0 15 C0 10.05 0 5.1 0 0 Z " fill="#1D3755" transform="translate(390,50)"/>
<path d="M0 0 C3.0625 0.3125 3.0625 0.3125 4.9375 1.375 C6.64446395 4.31477124 6.25049766 6.99120803 6.0625 10.3125 C3.26379973 11.71185013 1.15751208 11.56515405 -1.9375 11.3125 C-3.8125 10.1875 -3.8125 10.1875 -4.9375 8.3125 C-5.25 5.25 -5.25 5.25 -4.9375 2.3125 C-2.9375 0.3125 -2.9375 0.3125 0 0 Z " fill="#153151" transform="translate(515.9375,53.6875)"/>
<path d="M0 0 C3.0625 0.3125 3.0625 0.3125 4.9375 1.375 C6.64446395 4.31477124 6.25049766 6.99120803 6.0625 10.3125 C3.26379973 11.71185013 1.15751208 11.56515405 -1.9375 11.3125 C-3.8125 10.1875 -3.8125 10.1875 -4.9375 8.3125 C-5.25 5.25 -5.25 5.25 -4.9375 2.3125 C-2.9375 0.3125 -2.9375 0.3125 0 0 Z " fill="#153151" transform="translate(406.9375,53.6875)"/>
<path d="M0 0 C3.0625 0.3125 3.0625 0.3125 4.9375 1.375 C6.64446395 4.31477124 6.25049766 6.99120803 6.0625 10.3125 C3.26379973 11.71185013 1.15751208 11.56515405 -1.9375 11.3125 C-3.8125 10.1875 -3.8125 10.1875 -4.9375 8.3125 C-5.25 5.25 -5.25 5.25 -4.9375 2.3125 C-2.9375 0.3125 -2.9375 0.3125 0 0 Z " fill="#153151" transform="translate(277.9375,53.6875)"/>
<path d="M0 0 C3.0625 0.3125 3.0625 0.3125 4.9375 1.375 C6.64446395 4.31477124 6.25049766 6.99120803 6.0625 10.3125 C3.26379973 11.71185013 1.15751208 11.56515405 -1.9375 11.3125 C-3.8125 10.1875 -3.8125 10.1875 -4.9375 8.3125 C-5.25 5.25 -5.25 5.25 -4.9375 2.3125 C-2.9375 0.3125 -2.9375 0.3125 0 0 Z " fill="#153151" transform="translate(48.9375,53.6875)"/>
<path d="M0 0 C6.8359375 -0.1953125 6.8359375 -0.1953125 9 0 C11 2 11 2 11.1953125 4.1640625 C11.17210937 4.97617187 11.14890625 5.78828125 11.125 6.625 C11.10695313 7.44226562 11.08890625 8.25953125 11.0703125 9.1015625 C11.03550781 10.04128906 11.03550781 10.04128906 11 11 C9.68 10.67 8.36 10.34 7 10 C6.67 8.02 6.34 6.04 6 4 C5.67 6.31 5.34 8.62 5 11 C3.35 10.67 1.7 10.34 0 10 C0 6.7 0 3.4 0 0 Z " fill="#2B4360" transform="translate(445,54)"/>
<path d="M0 0 C6.8359375 -0.1953125 6.8359375 -0.1953125 9 0 C11 2 11 2 11.1953125 4.1640625 C11.17210937 4.97617187 11.14890625 5.78828125 11.125 6.625 C11.10695312 7.44226562 11.08890625 8.25953125 11.0703125 9.1015625 C11.03550781 10.04128906 11.03550781 10.04128906 11 11 C9.68 10.67 8.36 10.34 7 10 C6.67 8.02 6.34 6.04 6 4 C5.67 6.31 5.34 8.62 5 11 C3.35 10.67 1.7 10.34 0 10 C0 6.7 0 3.4 0 0 Z " fill="#2B4360" transform="translate(149,54)"/>
<path d="M0 0 C3.14711179 -0.2145758 5.44617664 -0.23318878 8.375 1 C10.95575901 4.17631878 10.26265854 6.99445732 10 11 C8.54207116 11.05399736 7.08357288 11.09279177 5.625 11.125 C4.81289063 11.14820312 4.00078125 11.17140625 3.1640625 11.1953125 C1 11 1 11 -1 9 C-0.625 6.625 -0.625 6.625 0 4 C0 2.68 0 1.36 0 0 Z " fill="#183252" transform="translate(491,54)"/>
<path d="M0 0 C3.14711179 -0.2145758 5.44617664 -0.23318878 8.375 1 C10.95575901 4.17631878 10.26265854 6.99445732 10 11 C8.54207116 11.05399736 7.08357288 11.09279177 5.625 11.125 C4.81289063 11.14820312 4.00078125 11.17140625 3.1640625 11.1953125 C1 11 1 11 -1 9 C-0.625 6.625 -0.625 6.625 0 4 C0 2.68 0 1.36 0 0 Z " fill="#183252" transform="translate(434,54)"/>
<path d="M0 0 C3.14711179 -0.2145758 5.44617664 -0.23318878 8.375 1 C10.95575901 4.17631878 10.26265854 6.99445732 10 11 C8.54207116 11.05399736 7.08357288 11.09279177 5.625 11.125 C4.81289062 11.14820312 4.00078125 11.17140625 3.1640625 11.1953125 C1 11 1 11 -1 9 C-0.625 6.625 -0.625 6.625 0 4 C0 2.68 0 1.36 0 0 Z " fill="#183252" transform="translate(211,54)"/>
<path d="M0 0 C2.475 0.495 2.475 0.495 5 1 C5.33 1.99 5.66 2.98 6 4 C6.66 2.68 7.32 1.36 8 0 C9.32 0.33 10.64 0.66 12 1 C11.54636829 2.58468677 11.08688548 4.16769924 10.625 5.75 C10.36976563 6.63171875 10.11453125 7.5134375 9.8515625 8.421875 C9.0790066 10.76080572 8.16374324 12.83442562 7 15 C5.35 14.67 3.7 14.34 2 14 C2 13.34 2 12.68 2 12 C2.66 12 3.32 12 4 12 C2.68 8.04 1.36 4.08 0 0 Z " fill="#163151" transform="translate(361,54)"/>
<path d="M0 0 C2.475 0.495 2.475 0.495 5 1 C5.33 2.98 5.66 4.96 6 7 C6.33 4.69 6.66 2.38 7 0 C8.32 0.33 9.64 0.66 11 1 C11 4.3 11 7.6 11 11 C3.71641791 11.35820896 3.71641791 11.35820896 1 10 C-0.63983879 6.72032242 -0.17845638 3.62861311 0 0 Z " fill="#28415F" transform="translate(296,54)"/>
<path d="M0 0 C2.475 0.495 2.475 0.495 5 1 C5.33 2.98 5.66 4.96 6 7 C6.33 4.69 6.66 2.38 7 0 C8.32 0.33 9.64 0.66 11 1 C11 4.3 11 7.6 11 11 C3.71641791 11.35820896 3.71641791 11.35820896 1 10 C-0.63983879 6.72032242 -0.17845638 3.62861311 0 0 Z " fill="#28415F" transform="translate(67,54)"/>
<path d="M0 0 C0.66 1.32 1.32 2.64 2 4 C0.02 4 -1.96 4 -4 4 C-4.33 5.65 -4.66 7.3 -5 9 C-3.824375 9.2165625 -3.824375 9.2165625 -2.625 9.4375 C0 10 0 10 2 11 C1.67 11.99 1.34 12.98 1 14 C-3.01686987 14.46707789 -4.56501812 14.32150834 -7.875 11.875 C-10 9 -10 9 -10.5625 5.875 C-10 3 -10 3 -8.375 1.125 C-5.43362303 -0.26828383 -3.21666704 -0.21931821 0 0 Z " fill="#142F4F" transform="translate(430,51)"/>
<path d="M0 0 C0.61875 0.680625 0.61875 0.680625 1.25 1.375 C3.06408095 3.05950374 4.75285627 3.99265971 7 5 C5.35 5.33 3.7 5.66 2 6 C2 7.65 2 9.3 2 11 C1.34 11 0.68 11 0 11 C-0.66 10.34 -1.32 9.68 -2 9 C-4.57061311 8.35232207 -4.57061311 8.35232207 -7 8 C-7.625 5.625 -7.625 5.625 -8 3 C-6 1 -6 1 -3.4375 0.9375 C-2.2309375 0.9684375 -2.2309375 0.9684375 -1 1 C-0.67 0.67 -0.34 0.34 0 0 Z " fill="#E2E7EB" transform="translate(432,53)"/>
<path d="M0 0 C0.33 0 0.66 0 1 0 C1 4.62 1 9.24 1 14 C0.67 14 0.34 14 0 14 C0 11.69 0 9.38 0 7 C-0.99 7.33 -1.98 7.66 -3 8 C-3.33 10.31 -3.66 12.62 -4 15 C-5.65 14.67 -7.3 14.34 -9 14 C-9 10.7 -9 7.4 -9 4 C-6.36 4 -3.72 4 -1 4 C-0.67 2.68 -0.34 1.36 0 0 Z " fill="#39506B" transform="translate(231,50)"/>
<path d="M0 0 C2.0625 0.4375 2.0625 0.4375 4 1 C4.08082094 2.95766281 4.13910778 4.91626728 4.1875 6.875 C4.22230469 7.96554688 4.25710937 9.05609375 4.29296875 10.1796875 C4.19628906 11.11039063 4.09960938 12.04109375 4 13 C0.77208445 15.1519437 -0.28400809 15.20086443 -4 15 C-4.66 13.68 -5.32 12.36 -6 11 C-3.525 11.495 -3.525 11.495 -1 12 C-1.01160156 11.21753906 -1.02320313 10.43507813 -1.03515625 9.62890625 C-1.04417969 8.61699219 -1.05320313 7.60507812 -1.0625 6.5625 C-1.07410156 5.55316406 -1.08570313 4.54382812 -1.09765625 3.50390625 C-1 1 -1 1 0 0 Z " fill="#112C4D" transform="translate(137,54)"/>
<path d="M0 0 C1.32 0.33 2.64 0.66 4 1 C4 1.66 4 2.32 4 3 C4.99 3.33 5.98 3.66 7 4 C7 4.66 7 5.32 7 6 C6.01 6 5.02 6 4 6 C4 7.65 4 9.3 4 11 C4.99 11.33 5.98 11.66 7 12 C7 12.66 7 13.32 7 14 C4.625 14.125 4.625 14.125 2 14 C-0.3129482 11.6870518 -0.49580975 10.52095125 -1.125 7.375 C-1.29257812 6.55773438 -1.46015625 5.74046875 -1.6328125 4.8984375 C-1.75398438 4.27195312 -1.87515625 3.64546875 -2 3 C-1.34 3 -0.68 3 0 3 C0 2.01 0 1.02 0 0 Z " fill="#0C2749" transform="translate(503,51)"/>
<path d="M0 0 C1.32 0.33 2.64 0.66 4 1 C4 1.66 4 2.32 4 3 C4.99 3.33 5.98 3.66 7 4 C7 4.66 7 5.32 7 6 C6.01 6 5.02 6 4 6 C4 7.65 4 9.3 4 11 C4.99 11.33 5.98 11.66 7 12 C7 12.66 7 13.32 7 14 C4.625 14.125 4.625 14.125 2 14 C-0.3129482 11.6870518 -0.49580975 10.52095125 -1.125 7.375 C-1.29257812 6.55773438 -1.46015625 5.74046875 -1.6328125 4.8984375 C-1.75398438 4.27195312 -1.87515625 3.64546875 -2 3 C-1.34 3 -0.68 3 0 3 C0 2.01 0 1.02 0 0 Z " fill="#0C2749" transform="translate(381,51)"/>
<path d="M0 0 C2.475 0.495 2.475 0.495 5 1 C5 5.62 5 10.24 5 15 C3.35 14.67 1.7 14.34 0 14 C0 9.38 0 4.76 0 0 Z " fill="#324964" transform="translate(471,50)"/>
<path d="M0 0 C2.475 0.495 2.475 0.495 5 1 C5 5.62 5 10.24 5 15 C3.35 14.67 1.7 14.34 0 14 C0 9.38 0 4.76 0 0 Z " fill="#324964" transform="translate(143,50)"/>
<path d="M0 0 C1.32 0.33 2.64 0.66 4 1 C4 4.3 4 7.6 4 11 C5.65 11 7.3 11 9 11 C9.33 11.99 9.66 12.98 10 14 C8.52093108 14.02689216 7.04172517 14.04634621 5.5625 14.0625 C4.32693359 14.07990234 4.32693359 14.07990234 3.06640625 14.09765625 C1 14 1 14 0 13 C-0.07258946 10.81360547 -0.08373783 8.62499611 -0.0625 6.4375 C-0.05347656 5.23996094 -0.04445313 4.04242188 -0.03515625 2.80859375 C-0.02355469 1.88175781 -0.01195313 0.95492187 0 0 Z " fill="#072344" transform="translate(108,51)"/>
<path d="M0 0 C0.94875 0.04125 1.8975 0.0825 2.875 0.125 C3.205 1.115 3.535 2.105 3.875 3.125 C2.555 3.455 1.235 3.785 -0.125 4.125 C-0.125 5.115 -0.125 6.105 -0.125 7.125 C1.195 7.455 2.515 7.785 3.875 8.125 C3.875 9.115 3.875 10.105 3.875 11.125 C-1.525 11.485 -1.525 11.485 -4 10 C-5.63031294 7.28281176 -5.45515665 5.22847254 -5.125 2.125 C-3.125 0.125 -3.125 0.125 0 0 Z " fill="#1A3454" transform="translate(290.125,53.875)"/>
<path d="M0 0 C1.32 0 2.64 0 4 0 C4.19491452 1.45736087 4.38069358 2.91594593 4.5625 4.375 C4.66691406 5.18710937 4.77132812 5.99921875 4.87890625 6.8359375 C5 9 5 9 4 11 C1.03824877 10.38722388 -0.38058783 9.74627478 -3 8 C-2.25 2.25 -2.25 2.25 0 0 Z " fill="#3F5570" transform="translate(132,54)"/>
<path d="M0 0 C0.94875 0.04125 1.8975 0.0825 2.875 0.125 C3.205 1.115 3.535 2.105 3.875 3.125 C2.555 3.455 1.235 3.785 -0.125 4.125 C-0.125 5.115 -0.125 6.105 -0.125 7.125 C1.195 7.455 2.515 7.785 3.875 8.125 C3.875 9.115 3.875 10.105 3.875 11.125 C-1.525 11.485 -1.525 11.485 -4 10 C-5.63031294 7.28281176 -5.45515665 5.22847254 -5.125 2.125 C-3.125 0.125 -3.125 0.125 0 0 Z " fill="#1A3454" transform="translate(61.125,53.875)"/>
<path d="M0 0 C1.27875 -0.061875 2.5575 -0.12375 3.875 -0.1875 C4.95394531 -0.23970703 4.95394531 -0.23970703 6.0546875 -0.29296875 C6.69664062 -0.19628906 7.33859375 -0.09960938 8 0 C8.66 0.99 9.32 1.98 10 3 C8.68 3.33 7.36 3.66 6 4 C5.67 6.31 5.34 8.62 5 11 C3.35 10.67 1.7 10.34 0 10 C0 6.7 0 3.4 0 0 Z " fill="#2B425F" transform="translate(309,54)"/>
<path d="M0 0 C1.27875 -0.061875 2.5575 -0.12375 3.875 -0.1875 C4.95394531 -0.23970703 4.95394531 -0.23970703 6.0546875 -0.29296875 C6.69664063 -0.19628906 7.33859375 -0.09960938 8 0 C8.66 0.99 9.32 1.98 10 3 C8.68 3.33 7.36 3.66 6 4 C5.67 6.31 5.34 8.62 5 11 C3.35 10.67 1.7 10.34 0 10 C0 6.7 0 3.4 0 0 Z " fill="#2B425F" transform="translate(80,54)"/>
<path d="M0 0 C2.125 0.375 2.125 0.375 4 1 C3.67 1.66 3.34 2.32 3 3 C3.66 3 4.32 3 5 3 C5.33 5.31 5.66 7.62 6 10 C3.6875 10.6875 3.6875 10.6875 1 11 C-0.8125 9.9375 -0.8125 9.9375 -2 8 C-2.3125 4.9375 -2.3125 4.9375 -2 2 C-1.34 1.34 -0.68 0.68 0 0 Z " fill="#405874" transform="translate(479,54)"/>
<path d="M0 0 C2.125 0.375 2.125 0.375 4 1 C3.67 1.66 3.34 2.32 3 3 C3.66 3 4.32 3 5 3 C5.33 5.31 5.66 7.62 6 10 C3.6875 10.6875 3.6875 10.6875 1 11 C-0.8125 9.9375 -0.8125 9.9375 -2 8 C-2.3125 4.9375 -2.3125 4.9375 -2 2 C-1.34 1.34 -0.68 0.68 0 0 Z " fill="#405874" transform="translate(460,54)"/>
<path d="M0 0 C2.125 0.375 2.125 0.375 4 1 C3.67 1.66 3.34 2.32 3 3 C3.66 3 4.32 3 5 3 C5.33 5.31 5.66 7.62 6 10 C3.6875 10.6875 3.6875 10.6875 1 11 C-0.8125 9.9375 -0.8125 9.9375 -2 8 C-2.3125 4.9375 -2.3125 4.9375 -2 2 C-1.34 1.34 -0.68 0.68 0 0 Z " fill="#405874" transform="translate(332,54)"/>
<path d="M0 0 C0.99 0 1.98 0 3 0 C3.84681133 5.08086796 4.09038099 9.84828377 4 15 C2.68 15 1.36 15 0 15 C0 10.05 0 5.1 0 0 Z " fill="#142F4F" transform="translate(390,50)"/>
<path d="M0 0 C0.99 0 1.98 0 3 0 C3.19448477 2.12437212 3.38038289 4.24953191 3.5625 6.375 C3.66691406 7.55835938 3.77132813 8.74171875 3.87890625 9.9609375 C4 13 4 13 3 15 C2.01 15 1.02 15 0 15 C0 10.05 0 5.1 0 0 Z " fill="#0D2A4C" transform="translate(350,50)"/>
<path d="M0 0 C5.28 0 10.56 0 16 0 C16.33 0.99 16.66 1.98 17 3 C11.72 3 6.44 3 1 3 C0.67 2.01 0.34 1.02 0 0 Z " fill="#082243" transform="translate(168,57)"/>
<path d="M0 0 C1.98 0.495 1.98 0.495 4 1 C4 4.3 4 7.6 4 11 C2.35 11 0.7 11 -1 11 C-0.67 7.37 -0.34 3.74 0 0 Z " fill="#122C4D" transform="translate(303,54)"/>
<path d="M0 0 C1.98 0.495 1.98 0.495 4 1 C4 4.3 4 7.6 4 11 C2.35 11 0.7 11 -1 11 C-0.67 7.37 -0.34 3.74 0 0 Z " fill="#122C4D" transform="translate(74,54)"/>
<path d="M0 0 C4.875 0.875 4.875 0.875 6 2 C6.07179964 3.51928038 6.08392007 5.04167482 6.0625 6.5625 C6.05347656 7.38878906 6.04445313 8.21507812 6.03515625 9.06640625 C6.01775391 10.02353516 6.01775391 10.02353516 6 11 C4.68 10.67 3.36 10.34 2 10 C2 7.03 2 4.06 2 1 C1.34 0.67 0.68 0.34 0 0 Z " fill="#163253" transform="translate(450,54)"/>
<path d="M0 0 C4.875 0.875 4.875 0.875 6 2 C6.07179964 3.51928038 6.08392007 5.04167482 6.0625 6.5625 C6.05347656 7.38878906 6.04445312 8.21507812 6.03515625 9.06640625 C6.01775391 10.02353516 6.01775391 10.02353516 6 11 C4.68 10.67 3.36 10.34 2 10 C2 7.03 2 4.06 2 1 C1.34 0.67 0.68 0.34 0 0 Z " fill="#163253" transform="translate(154,54)"/>
<path d="M0 0 C0.33 2.31 0.66 4.62 1 7 C0.01 7.33 -0.98 7.66 -2 8 C-2 7.34 -2 6.68 -2 6 C-3.65 5.67 -5.3 5.34 -7 5 C-6.67 3.68 -6.34 2.36 -6 1 C-3.92446352 0.4465236 -2.15634036 0 0 0 Z " fill="#D9DEE3" transform="translate(296,56)"/>
<path d="M0 0 C0.33 2.31 0.66 4.62 1 7 C0.01 7.33 -0.98 7.66 -2 8 C-2 7.34 -2 6.68 -2 6 C-3.65 5.67 -5.3 5.34 -7 5 C-6.67 3.68 -6.34 2.36 -6 1 C-3.92446352 0.4465236 -2.15634036 0 0 0 Z " fill="#D9DEE3" transform="translate(67,56)"/>
<path d="M0 0 C1.32 0.33 2.64 0.66 4 1 C4 2.32 4 3.64 4 5 C1.29120665 6.35439668 -1.00933268 6.06501451 -4 6 C-4.66 4.68 -5.32 3.36 -6 2 C-3.03 2.495 -3.03 2.495 0 3 C0 2.01 0 1.02 0 0 Z " fill="#1E3654" transform="translate(249,59)"/>
<path d="M0 0 C0.33 0.99 0.66 1.98 1 3 C3.50447516 4.21869929 3.50447516 4.21869929 6 5 C6 5.33 6 5.66 6 6 C4.35 6 2.7 6 1 6 C1 6.66 1 7.32 1 8 C-2.16115776 6.63016497 -2.9927092 6.0109362 -5 3 C-2.25 0 -2.25 0 0 0 Z " fill="#D8DEE3" transform="translate(243,56)"/>
<path d="M0 0 C1.98 0 3.96 0 6 0 C6 3 6 3 4 6 C2.35 5.67 0.7 5.34 -1 5 C-0.67 3.35 -0.34 1.7 0 0 Z " fill="#102A4B" transform="translate(245,55)"/>
<path d="M0 0 C1.32 1.65 2.64 3.3 4 5 C6.11660427 6.31165257 6.11660427 6.31165257 8 7 C6.35 7.33 4.7 7.66 3 8 C2.34 9.98 1.68 11.96 1 14 C0.67 14 0.34 14 0 14 C0 9.38 0 4.76 0 0 Z " fill="#C2C8CE" transform="translate(488,51)"/>
<path d="M0 0 C1.32 1.32 2.64 2.64 4 4 C6.13309192 5.23512079 6.13309192 5.23512079 8 6 C6.35 6.33 4.7 6.66 3 7 C2.34 8.98 1.68 10.96 1 13 C0.67 13 0.34 13 0 13 C0 8.71 0 4.42 0 0 Z " fill="#CFD5DA" transform="translate(208,52)"/>
<path d="M0 0 C1.98 0 3.96 0 6 0 C6.33 0.99 6.66 1.98 7 3 C4.29120665 4.35439668 1.99066732 4.06501451 -1 4 C-0.67 2.68 -0.34 1.36 0 0 Z " fill="#3B4F68" transform="translate(515,61)"/>
<path d="M0 0 C1.98 0 3.96 0 6 0 C6.33 0.99 6.66 1.98 7 3 C4.29120665 4.35439668 1.99066732 4.06501451 -1 4 C-0.67 2.68 -0.34 1.36 0 0 Z " fill="#3B4F68" transform="translate(406,61)"/>
<path d="M0 0 C1.98 0 3.96 0 6 0 C6.33 0.99 6.66 1.98 7 3 C4.29120665 4.35439668 1.99066732 4.06501451 -1 4 C-0.67 2.68 -0.34 1.36 0 0 Z " fill="#3B4F68" transform="translate(322,61)"/>
<path d="M0 0 C1.98 0 3.96 0 6 0 C6.33 0.99 6.66 1.98 7 3 C4.29120665 4.35439668 1.99066732 4.06501451 -1 4 C-0.67 2.68 -0.34 1.36 0 0 Z " fill="#3B4F68" transform="translate(277,61)"/>
<path d="M0 0 C1.98 0 3.96 0 6 0 C6.33 0.99 6.66 1.98 7 3 C4.29120665 4.35439668 1.99066732 4.06501451 -1 4 C-0.67 2.68 -0.34 1.36 0 0 Z " fill="#3B4F68" transform="translate(93,61)"/>
<path d="M0 0 C1.98 0 3.96 0 6 0 C6.33 0.99 6.66 1.98 7 3 C4.29120665 4.35439668 1.99066732 4.06501451 -1 4 C-0.67 2.68 -0.34 1.36 0 0 Z " fill="#3B4F68" transform="translate(48,61)"/>
<path d="M0 0 C6.75 -0.125 6.75 -0.125 9 1 C9 1.99 9 2.98 9 4 C5.625 3.6875 5.625 3.6875 2 3 C1.34 2.01 0.68 1.02 0 0 Z " fill="#253D5A" transform="translate(262,51)"/>
<path d="M0 0 C6.75 -0.125 6.75 -0.125 9 1 C9 1.99 9 2.98 9 4 C5.625 3.6875 5.625 3.6875 2 3 C1.34 2.01 0.68 1.02 0 0 Z " fill="#253D5A" transform="translate(33,51)"/>
<path d="M0 0 C1.35439668 2.70879335 1.06501451 5.00933268 1 8 C0.01 8 -0.98 8 -2 8 C-3 7 -3 7 -3.25 4.5625 C-3.1675 3.716875 -3.085 2.87125 -3 2 C-2.01 1.34 -1.02 0.68 0 0 Z " fill="#09294F" transform="translate(121,55)"/>
</svg>
