<?xml version="1.0" encoding="UTF-8"?>
<svg version="1.1" xmlns="http://www.w3.org/2000/svg" width="1200" height="100">
<path d="M0 0 C396 0 792 0 1200 0 C1200 33 1200 66 1200 100 C804 100 408 100 0 100 C0 67 0 34 0 0 Z " fill="#172F63" transform="translate(0,0)"/>
<path d="M0 0 C396 0 792 0 1200 0 C1200 33 1200 66 1200 100 C804 100 408 100 0 100 C0 67 0 34 0 0 Z M2 2 C2 33.68 2 65.36 2 98 C396.68 98 791.36 98 1198 98 C1198 66.32 1198 34.64 1198 2 C803.32 2 408.64 2 2 2 Z " fill="#3C5078" transform="translate(0,0)"/>
<path d="M0 0 C11.625 -0.25 11.625 -0.25 15 2 C15.1875 5.5 15.1875 5.5 15 9 C15 9.66 15 10.32 15 11 C15.33 11.33 15.66 11.66 16 12 C15.6875 15.5 15.6875 15.5 15 19 C10.73840618 21.13079691 4.59236298 20.04502317 0 20 C0 13.4 0 6.8 0 0 Z " fill="#F9CF00" transform="translate(399,43)"/>
<path d="M0 0 C11.625 -0.25 11.625 -0.25 15 2 C15.27028374 5.71640139 15.180933 8.457201 14 12 C14.74851382 14.10234944 14.74851382 14.10234944 15.9375 16.1875 C16.31777344 16.90292969 16.69804687 17.61835937 17.08984375 18.35546875 C17.39019531 18.89816406 17.69054687 19.44085938 18 20 C15.25 20.375 15.25 20.375 12 20 C9.8125 17.0625 9.8125 17.0625 8 14 C7.01 13.67 6.02 13.34 5 13 C5 15.31 5 17.62 5 20 C3.35 20 1.7 20 0 20 C0 13.4 0 6.8 0 0 Z " fill="#F6CD01" transform="translate(233,43)"/>
<path d="M0 0 C11.625 -0.25 11.625 -0.25 15 2 C15.27028374 5.71640139 15.180933 8.457201 14 12 C14.74851382 14.10234944 14.74851382 14.10234944 15.9375 16.1875 C16.31777344 16.90292969 16.69804688 17.61835937 17.08984375 18.35546875 C17.39019531 18.89816406 17.69054687 19.44085938 18 20 C15.25 20.375 15.25 20.375 12 20 C9.8125 17.0625 9.8125 17.0625 8 14 C7.01 13.67 6.02 13.34 5 13 C5 15.31 5 17.62 5 20 C3.35 20 1.7 20 0 20 C0 13.4 0 6.8 0 0 Z " fill="#F6CD00" transform="translate(27,43)"/>
<path d="M0 0 C1.65 0 3.3 0 5 0 C5.33 0.66 5.66 1.32 6 2 C6.66 1.34 7.32 0.68 8 0 C11 0.375 11 0.375 14 1 C14.66 1 15.32 1 16 1 C16.33 0.67 16.66 0.34 17 0 C20.5 0.3125 20.5 0.3125 24 1 C25.38226016 3.76452033 25.09525387 6.0461363 25.0625 9.125 C25.05347656 10.22070312 25.04445312 11.31640625 25.03515625 12.4453125 C25.02355469 13.28835937 25.01195312 14.13140625 25 15 C23.35 15 21.7 15 20 15 C19.67 11.37 19.34 7.74 19 4 C18.01 4.33 17.02 4.66 16 5 C15.67 8.3 15.34 11.6 15 15 C13.35 15 11.7 15 10 15 C9.67 11.37 9.34 7.74 9 4 C8.01 4.33 7.02 4.66 6 5 C5.67 8.3 5.34 11.6 5 15 C3.35 15 1.7 15 0 15 C0 10.05 0 5.1 0 0 Z " fill="#F2CA03" transform="translate(141,48)"/>
<path d="M0 0 C1.65 0 3.3 0 5 0 C5 1.65 5 3.3 5 5 C6.65 5 8.3 5 10 5 C10 5.99 10 6.98 10 8 C8.35 8 6.7 8 5 8 C5 10.97 5 13.94 5 17 C6.32 17 7.64 17 9 17 C9 17.99 9 18.98 9 20 C5.625 20.125 5.625 20.125 2 20 C0 18 0 18 -0.1953125 15.6171875 C-0.16050781 14.25980469 -0.16050781 14.25980469 -0.125 12.875 C-0.10695313 11.96492188 -0.08890625 11.05484375 -0.0703125 10.1171875 C-0.03550781 9.06917969 -0.03550781 9.06917969 0 8 C-0.99 8 -1.98 8 -3 8 C-3.33 8.66 -3.66 9.32 -4 10 C-6.5625 10.625 -6.5625 10.625 -9 11 C-9.33 13.97 -9.66 16.94 -10 20 C-11.65 20 -13.3 20 -15 20 C-15 15.05 -15 10.1 -15 5 C-13.35 5 -11.7 5 -10 5 C-9.67 5.66 -9.34 6.32 -9 7 C-8.34 6.34 -7.68 5.68 -7 5 C-3.375 4.875 -3.375 4.875 0 5 C0 3.35 0 1.7 0 0 Z " fill="#F5CC00" transform="translate(675,43)"/>
<path d="M0 0 C9.92391304 -0.35869565 9.92391304 -0.35869565 14.1875 1.0625 C16 3 16 3 16.625 6.5 C16 10 16 10 13.875 11.9375 C10.71583874 13.10501612 8.34145968 13.23312509 5 13 C5 15.31 5 17.62 5 20 C3.35 20 1.7 20 0 20 C0 13.4 0 6.8 0 0 Z " fill="#FAD000" transform="translate(621,43)"/>
<path d="M0 0 C2.5 1.625 2.5 1.625 4 4 C4.63656938 7.73984509 4.25584708 9.50962644 2.5 12.875 C-0.35812196 15.30440367 -2.27819584 15.73997051 -6.0234375 15.48046875 C-9.57637321 14.61681046 -11.02953982 12.98747189 -13 10 C-13.0652915 6.21309309 -12.83811613 4.039264 -10.4375 1.0625 C-6.90980637 -0.47521261 -3.78396047 -0.69010754 0 0 Z " fill="#F0C803" transform="translate(653,48)"/>
<path d="M0 0 C1.65 0 3.3 0 5 0 C5.33 3.3 5.66 6.6 6 10 C6.53625 9.34 7.0725 8.68 7.625 8 C10 6 10 6 13.25 5.75 C14.1575 5.8325 15.065 5.915 16 6 C14.35 7.98 12.7 9.96 11 12 C12.52708963 15.43595166 14.59927045 18.11912454 17 21 C14.3125 21.3125 14.3125 21.3125 11 21 C8.125 18.5 8.125 18.5 6 16 C5.67 17.65 5.34 19.3 5 21 C3.35 21 1.7 21 0 21 C0 14.07 0 7.14 0 0 Z " fill="#EDC605" transform="translate(458,42)"/>
<path d="M0 0 C1.41569064 -0.08167446 2.83276805 -0.13949698 4.25 -0.1875 C5.43335938 -0.23970703 5.43335938 -0.23970703 6.640625 -0.29296875 C9.67691579 0.08405411 10.92911289 0.74085042 13 3 C13.390625 5.91796875 13.390625 5.91796875 13.25 9.1875 C13.21390625 10.27417969 13.1778125 11.36085938 13.140625 12.48046875 C13.07101562 13.72763672 13.07101562 13.72763672 13 15 C11.35 15 9.7 15 8 15 C8 14.34 8 13.68 8 13 C7.01 13.66 6.02 14.32 5 15 C2.10836622 15.36145422 0.6069553 15.38440503 -1.875 13.8125 C-3 12 -3 12 -2.8125 9.4375 C-2 7 -2 7 0 5 C2.32275177 4.59952556 4.65739357 4.2602896 7 4 C4.36 4 1.72 4 -1 4 C-0.67 2.68 -0.34 1.36 0 0 Z " fill="#EEC703" transform="translate(689,48)"/>
<path d="M0 0 C1.41569064 -0.08167446 2.83276805 -0.13949698 4.25 -0.1875 C5.43335938 -0.23970703 5.43335938 -0.23970703 6.640625 -0.29296875 C9.67691579 0.08405411 10.92911289 0.74085042 13 3 C13.390625 5.91796875 13.390625 5.91796875 13.25 9.1875 C13.21390625 10.27417969 13.1778125 11.36085938 13.140625 12.48046875 C13.07101562 13.72763672 13.07101562 13.72763672 13 15 C11.35 15 9.7 15 8 15 C8 14.34 8 13.68 8 13 C7.01 13.66 6.02 14.32 5 15 C2.10836622 15.36145422 0.6069553 15.38440503 -1.875 13.8125 C-3 12 -3 12 -2.8125 9.4375 C-2 7 -2 7 0 5 C2.32275177 4.59952556 4.65739357 4.2602896 7 4 C4.36 4 1.72 4 -1 4 C-0.67 2.68 -0.34 1.36 0 0 Z " fill="#EEC703" transform="translate(510,48)"/>
<path d="M0 0 C1.41569064 -0.08167446 2.83276805 -0.13949698 4.25 -0.1875 C5.43335938 -0.23970703 5.43335938 -0.23970703 6.640625 -0.29296875 C9.67691579 0.08405411 10.92911289 0.74085042 13 3 C13.390625 5.91796875 13.390625 5.91796875 13.25 9.1875 C13.21390625 10.27417969 13.1778125 11.36085938 13.140625 12.48046875 C13.07101562 13.72763672 13.07101562 13.72763672 13 15 C11.35 15 9.7 15 8 15 C8 14.34 8 13.68 8 13 C7.01 13.66 6.02 14.32 5 15 C2.10836622 15.36145422 0.6069553 15.38440503 -1.875 13.8125 C-3 12 -3 12 -2.8125 9.4375 C-2 7 -2 7 0 5 C2.32275177 4.59952556 4.65739357 4.2602896 7 4 C4.36 4 1.72 4 -1 4 C-0.67 2.68 -0.34 1.36 0 0 Z " fill="#EEC703" transform="translate(421,48)"/>
<path d="M0 0 C2.0625 1.8125 2.0625 1.8125 3 4 C3 5.32 3 6.64 3 8 C-2.445 8.495 -2.445 8.495 -8 9 C-6.99163938 10.23267348 -6.99163938 10.23267348 -4.93359375 10.09765625 C-4.10988281 10.08605469 -3.28617188 10.07445312 -2.4375 10.0625 C-1.61121094 10.05347656 -0.78492188 10.04445313 0.06640625 10.03515625 C0.70449219 10.02355469 1.34257813 10.01195312 2 10 C2 10.99 2 11.98 2 13 C-1.72879478 14.24293159 -5.13260806 14.65332641 -9 14 C-12.0625 11.9375 -12.0625 11.9375 -14 9 C-14.06516574 5.22038718 -13.78258108 3.04344143 -11.5 0 C-7.5887345 -1.5645062 -4.01568518 -1.12560873 0 0 Z " fill="#DEBB07" transform="translate(573,49)"/>
<path d="M0 0 C2.0625 1.8125 2.0625 1.8125 3 4 C3 5.32 3 6.64 3 8 C-2.445 8.495 -2.445 8.495 -8 9 C-6.99163938 10.23267348 -6.99163938 10.23267348 -4.93359375 10.09765625 C-4.10988281 10.08605469 -3.28617188 10.07445312 -2.4375 10.0625 C-1.61121094 10.05347656 -0.78492188 10.04445313 0.06640625 10.03515625 C0.70449219 10.02355469 1.34257813 10.01195312 2 10 C2 10.99 2 11.98 2 13 C-1.72879478 14.24293159 -5.13260806 14.65332641 -9 14 C-12.0625 11.9375 -12.0625 11.9375 -14 9 C-14.06516574 5.22038718 -13.78258108 3.04344143 -11.5 0 C-7.5887345 -1.5645062 -4.01568518 -1.12560873 0 0 Z " fill="#DEBB07" transform="translate(554,49)"/>
<path d="M0 0 C2.0625 1.8125 2.0625 1.8125 3 4 C3 5.32 3 6.64 3 8 C-2.445 8.495 -2.445 8.495 -8 9 C-6.99163938 10.23267348 -6.99163938 10.23267348 -4.93359375 10.09765625 C-4.10988281 10.08605469 -3.28617187 10.07445312 -2.4375 10.0625 C-1.61121094 10.05347656 -0.78492188 10.04445313 0.06640625 10.03515625 C0.70449219 10.02355469 1.34257812 10.01195312 2 10 C2 10.99 2 11.98 2 13 C-1.72879478 14.24293159 -5.13260806 14.65332641 -9 14 C-12.0625 11.9375 -12.0625 11.9375 -14 9 C-14.06516574 5.22038718 -13.78258108 3.04344143 -11.5 0 C-7.5887345 -1.5645062 -4.01568518 -1.12560873 0 0 Z " fill="#DEBA06" transform="translate(267,49)"/>
<path d="M0 0 C2.0625 1.8125 2.0625 1.8125 3 4 C3 5.32 3 6.64 3 8 C-2.445 8.495 -2.445 8.495 -8 9 C-6.99163938 10.23267348 -6.99163938 10.23267348 -4.93359375 10.09765625 C-4.10988281 10.08605469 -3.28617188 10.07445312 -2.4375 10.0625 C-1.61121094 10.05347656 -0.78492188 10.04445313 0.06640625 10.03515625 C0.70449219 10.02355469 1.34257812 10.01195312 2 10 C2 10.99 2 11.98 2 13 C-1.72879478 14.24293159 -5.13260806 14.65332641 -9 14 C-12.0625 11.9375 -12.0625 11.9375 -14 9 C-14.06516574 5.22038718 -13.78258108 3.04344143 -11.5 0 C-7.5887345 -1.5645062 -4.01568518 -1.12560873 0 0 Z " fill="#DEBA06" transform="translate(183,49)"/>
<path d="M0 0 C2.0625 1.8125 2.0625 1.8125 3 4 C3 5.32 3 6.64 3 8 C-2.445 8.495 -2.445 8.495 -8 9 C-6.99163938 10.23267348 -6.99163938 10.23267348 -4.93359375 10.09765625 C-4.10988281 10.08605469 -3.28617188 10.07445312 -2.4375 10.0625 C-1.61121094 10.05347656 -0.78492188 10.04445313 0.06640625 10.03515625 C0.70449219 10.02355469 1.34257813 10.01195312 2 10 C2 10.99 2 11.98 2 13 C-1.72879478 14.24293159 -5.13260806 14.65332641 -9 14 C-12.0625 11.9375 -12.0625 11.9375 -14 9 C-14.06516574 5.22038718 -13.78258108 3.04344143 -11.5 0 C-7.5887345 -1.5645062 -4.01568518 -1.12560873 0 0 Z " fill="#DEBA05" transform="translate(61,49)"/>
<path d="M0 0 C0.66 0.33 1.32 0.66 2 1 C2 2.65 2 4.3 2 6 C1.06027344 5.85691406 1.06027344 5.85691406 0.1015625 5.7109375 C-0.71570313 5.60007812 -1.53296875 5.48921875 -2.375 5.375 C-3.18710937 5.25898437 -3.99921875 5.14296875 -4.8359375 5.0234375 C-5.55007813 5.01570313 -6.26421875 5.00796875 -7 5 C-9.31563087 6.88500271 -9.31563087 6.88500271 -9.25 10 C-9.31563087 13.11499729 -9.31563087 13.11499729 -7 15 C-4.77871445 15.02308597 -4.77871445 15.02308597 -2.375 14.625 C-1.55773437 14.51414062 -0.74046875 14.40328125 0.1015625 14.2890625 C0.72804688 14.19367187 1.35453125 14.09828125 2 14 C2 15.65 2 17.3 2 19 C-1.50545379 20.7527269 -5.17501488 20.53818886 -9 20 C-12.12603632 18.75719449 -12.79695509 17.82441655 -15 15 C-15.84892948 11.4772314 -15.84892948 8.5227686 -15 5 C-10.80096805 -0.38337429 -6.60631858 -0.9248846 0 0 Z " fill="#EEC703" transform="translate(502,43)"/>
<path d="M0 0 C1.65 0 3.3 0 5 0 C5.33 0.66 5.66 1.32 6 2 C6.66 1.34 7.32 0.68 8 0 C10.74776948 -0.35227814 12.33062709 -0.4599956 14.6484375 1.1328125 C16.60128275 3.83067386 16.29347549 5.90225975 16.1875 9.1875 C16.16042969 10.27417969 16.13335937 11.36085938 16.10546875 12.48046875 C16.07066406 13.31191406 16.03585937 14.14335938 16 15 C14.35 15 12.7 15 11 15 C10.67 11.37 10.34 7.74 10 4 C8.68 4.33 7.36 4.66 6 5 C5.67 8.3 5.34 11.6 5 15 C3.35 15 1.7 15 0 15 C0 10.05 0 5.1 0 0 Z " fill="#EFC803" transform="translate(438,48)"/>
<path d="M0 0 C1.65 0 3.3 0 5 0 C5.33 0.66 5.66 1.32 6 2 C6.66 1.34 7.32 0.68 8 0 C10.74776948 -0.35227814 12.33062709 -0.4599956 14.6484375 1.1328125 C16.60128275 3.83067386 16.29347549 5.90225975 16.1875 9.1875 C16.16042969 10.27417969 16.13335937 11.36085938 16.10546875 12.48046875 C16.07066406 13.31191406 16.03585938 14.14335938 16 15 C14.35 15 12.7 15 11 15 C10.67 11.37 10.34 7.74 10 4 C8.68 4.33 7.36 4.66 6 5 C5.67 8.3 5.34 11.6 5 15 C3.35 15 1.7 15 0 15 C0 10.05 0 5.1 0 0 Z " fill="#EFC803" transform="translate(189,48)"/>
<path d="M0 0 C1.65 0 3.3 0 5 0 C5.33 3.63 5.66 7.26 6 11 C7.32 10.67 8.64 10.34 10 10 C10.33 6.7 10.66 3.4 11 0 C12.65 0 14.3 0 16 0 C16 4.95 16 9.9 16 15 C14.35 15 12.7 15 11 15 C10.67 14.34 10.34 13.68 10 13 C9.34 13.66 8.68 14.32 8 15 C5.25223052 15.35227814 3.66937291 15.4599956 1.3515625 13.8671875 C-0.60128275 11.16932614 -0.29347549 9.09774025 -0.1875 5.8125 C-0.16042969 4.72582031 -0.13335937 3.63914063 -0.10546875 2.51953125 C-0.07066406 1.68808594 -0.03585937 0.85664062 0 0 Z " fill="#F3CB02" transform="translate(290,48)"/>
<path d="M0 0 C1.65 0 3.3 0 5 0 C5.33 3.63 5.66 7.26 6 11 C7.32 10.67 8.64 10.34 10 10 C10.33 6.7 10.66 3.4 11 0 C12.65 0 14.3 0 16 0 C16 4.95 16 9.9 16 15 C14.35 15 12.7 15 11 15 C10.67 14.34 10.34 13.68 10 13 C9.34 13.66 8.68 14.32 8 15 C5.25223052 15.35227814 3.66937291 15.4599956 1.3515625 13.8671875 C-0.60128275 11.16932614 -0.29347549 9.09774025 -0.1875 5.8125 C-0.16042969 4.72582031 -0.13335937 3.63914063 -0.10546875 2.51953125 C-0.07066406 1.68808594 -0.03585938 0.85664062 0 0 Z " fill="#F3CB02" transform="translate(98,48)"/>
<path d="M0 0 C1.65 0 3.3 0 5 0 C5 1.65 5 3.3 5 5 C6.65 5 8.3 5 10 5 C10 5.99 10 6.98 10 8 C8.35 8 6.7 8 5 8 C5 10.97 5 13.94 5 17 C6.32 17 7.64 17 9 17 C9 17.99 9 18.98 9 20 C5.625 20.125 5.625 20.125 2 20 C0 18 0 18 -0.1953125 15.6171875 C-0.16050781 14.25980469 -0.16050781 14.25980469 -0.125 12.875 C-0.10695313 11.96492188 -0.08890625 11.05484375 -0.0703125 10.1171875 C-0.04710937 9.41851562 -0.02390625 8.71984375 0 8 C-0.99 8 -1.98 8 -3 8 C-3 7.01 -3 6.02 -3 5 C-2.01 5 -1.02 5 0 5 C0 3.35 0 1.7 0 0 Z " fill="#F3CA01" transform="translate(321,43)"/>
<path d="M0 0 C1.65 0 3.3 0 5 0 C5 1.65 5 3.3 5 5 C6.65 5 8.3 5 10 5 C10 5.99 10 6.98 10 8 C8.35 8 6.7 8 5 8 C5 10.97 5 13.94 5 17 C6.32 17 7.64 17 9 17 C9 17.99 9 18.98 9 20 C5.625 20.125 5.625 20.125 2 20 C0 18 0 18 -0.1953125 15.6171875 C-0.16050781 14.25980469 -0.16050781 14.25980469 -0.125 12.875 C-0.10695312 11.96492188 -0.08890625 11.05484375 -0.0703125 10.1171875 C-0.04710937 9.41851562 -0.02390625 8.71984375 0 8 C-0.99 8 -1.98 8 -3 8 C-3 7.01 -3 6.02 -3 5 C-2.01 5 -1.02 5 0 5 C0 3.35 0 1.7 0 0 Z " fill="#F3CA01" transform="translate(210,43)"/>
<path d="M0 0 C1.65 0 3.3 0 5 0 C5 1.65 5 3.3 5 5 C6.65 5 8.3 5 10 5 C10 5.99 10 6.98 10 8 C8.35 8 6.7 8 5 8 C5 10.97 5 13.94 5 17 C6.32 17 7.64 17 9 17 C9 17.99 9 18.98 9 20 C5.625 20.125 5.625 20.125 2 20 C0 18 0 18 -0.1953125 15.6171875 C-0.16050781 14.25980469 -0.16050781 14.25980469 -0.125 12.875 C-0.10695312 11.96492188 -0.08890625 11.05484375 -0.0703125 10.1171875 C-0.04710937 9.41851562 -0.02390625 8.71984375 0 8 C-0.99 8 -1.98 8 -3 8 C-3 7.01 -3 6.02 -3 5 C-2.01 5 -1.02 5 0 5 C0 3.35 0 1.7 0 0 Z " fill="#F3CA01" transform="translate(129,43)"/>
<path d="M0 0 C0.70125 0.01417969 1.4025 0.02835938 2.125 0.04296875 C3.176875 0.05263672 3.176875 0.05263672 4.25 0.0625 C6.125 0.23046875 6.125 0.23046875 8.125 1.23046875 C8.125 2.22046875 8.125 3.21046875 8.125 4.23046875 C5.485 3.90046875 2.845 3.57046875 0.125 3.23046875 C0.455 3.89046875 0.785 4.55046875 1.125 5.23046875 C3.44706525 5.93538142 5.78093068 6.60259304 8.125 7.23046875 C9.125 8.23046875 9.125 8.23046875 9.3125 10.66796875 C9.125 13.23046875 9.125 13.23046875 7.125 15.23046875 C4.7421875 15.42578125 4.7421875 15.42578125 2 15.35546875 C0.63488281 15.32839844 0.63488281 15.32839844 -0.7578125 15.30078125 C-1.45648438 15.27757812 -2.15515625 15.254375 -2.875 15.23046875 C-3.205 13.91046875 -3.535 12.59046875 -3.875 11.23046875 C-1.235 11.56046875 1.405 11.89046875 4.125 12.23046875 C4.125 11.24046875 4.125 10.25046875 4.125 9.23046875 C3.17625 9.25109375 2.2275 9.27171875 1.25 9.29296875 C-1.875 9.23046875 -1.875 9.23046875 -3.875 8.23046875 C-4 5.35546875 -4 5.35546875 -3.875 2.23046875 C-1.875 0.23046875 -1.875 0.23046875 0 0 Z " fill="#EFC802" transform="translate(276.875,47.76953125)"/>
<path d="M0 0 C0.70125 0.01417969 1.4025 0.02835938 2.125 0.04296875 C3.176875 0.05263672 3.176875 0.05263672 4.25 0.0625 C6.125 0.23046875 6.125 0.23046875 8.125 1.23046875 C8.125 2.22046875 8.125 3.21046875 8.125 4.23046875 C5.485 3.90046875 2.845 3.57046875 0.125 3.23046875 C0.455 3.89046875 0.785 4.55046875 1.125 5.23046875 C3.44706525 5.93538142 5.78093068 6.60259304 8.125 7.23046875 C9.125 8.23046875 9.125 8.23046875 9.3125 10.66796875 C9.125 13.23046875 9.125 13.23046875 7.125 15.23046875 C4.7421875 15.42578125 4.7421875 15.42578125 2 15.35546875 C0.63488281 15.32839844 0.63488281 15.32839844 -0.7578125 15.30078125 C-1.45648437 15.27757812 -2.15515625 15.254375 -2.875 15.23046875 C-3.205 13.91046875 -3.535 12.59046875 -3.875 11.23046875 C-1.235 11.56046875 1.405 11.89046875 4.125 12.23046875 C4.125 11.24046875 4.125 10.25046875 4.125 9.23046875 C3.17625 9.27171875 2.2275 9.31296875 1.25 9.35546875 C-1.875 9.23046875 -1.875 9.23046875 -3.875 7.23046875 C-4.125 4.73046875 -4.125 4.73046875 -3.875 2.23046875 C-1.875 0.23046875 -1.875 0.23046875 0 0 Z " fill="#F0C802" transform="translate(596.875,47.76953125)"/>
<path d="M0 0 C0.70125 0.01417969 1.4025 0.02835938 2.125 0.04296875 C3.176875 0.05263672 3.176875 0.05263672 4.25 0.0625 C6.125 0.23046875 6.125 0.23046875 8.125 1.23046875 C8.125 2.22046875 8.125 3.21046875 8.125 4.23046875 C5.485 3.90046875 2.845 3.57046875 0.125 3.23046875 C0.455 3.89046875 0.785 4.55046875 1.125 5.23046875 C3.44706525 5.93538142 5.78093068 6.60259304 8.125 7.23046875 C9.125 8.23046875 9.125 8.23046875 9.3125 10.66796875 C9.125 13.23046875 9.125 13.23046875 7.125 15.23046875 C4.7421875 15.42578125 4.7421875 15.42578125 2 15.35546875 C0.63488281 15.32839844 0.63488281 15.32839844 -0.7578125 15.30078125 C-1.45648438 15.27757812 -2.15515625 15.254375 -2.875 15.23046875 C-3.205 13.91046875 -3.535 12.59046875 -3.875 11.23046875 C-1.235 11.56046875 1.405 11.89046875 4.125 12.23046875 C4.125 11.24046875 4.125 10.25046875 4.125 9.23046875 C3.17625 9.27171875 2.2275 9.31296875 1.25 9.35546875 C-1.875 9.23046875 -1.875 9.23046875 -3.875 7.23046875 C-4.125 4.73046875 -4.125 4.73046875 -3.875 2.23046875 C-1.875 0.23046875 -1.875 0.23046875 0 0 Z " fill="#F0C802" transform="translate(336.875,47.76953125)"/>
<path d="M0 0 C0.66 0.33 1.32 0.66 2 1 C2 1.99 2 2.98 2 4 C-0.31 4 -2.62 4 -5 4 C-5 6.31 -5 8.62 -5 11 C-2.69 11 -0.38 11 2 11 C2 11.99 2 12.98 2 14 C-1.13871188 15.56935594 -3.53855822 15.35201103 -7 15 C-10 12.9375 -10 12.9375 -12 10 C-12.06584389 6.18105459 -11.85572029 4.02028188 -9.375 1.0625 C-6.13276702 -0.38797265 -3.51055666 -0.26004123 0 0 Z " fill="#E6C103" transform="translate(78,48)"/>
<path d="M0 0 C2 2 2 2 2.75 4.5625 C3.36875 5.7690625 3.36875 5.7690625 4 7 C7.05272465 7.89830839 7.05272465 7.89830839 10 8 C10 8.99 10 9.98 10 11 C7.69 11 5.38 11 3 11 C2.34 12.32 1.68 13.64 1 15 C-1.64 15 -4.28 15 -7 15 C-7 14.67 -7 14.34 -7 14 C-5.02 14 -3.04 14 -1 14 C-1 13.01 -1 12.02 -1 11 C-2.32 11 -3.64 11 -5 11 C-5 8.03 -5 5.06 -5 2 C-3.35 2 -1.7 2 0 2 C0 1.34 0 0.68 0 0 Z " fill="#202D3D" transform="translate(331,49)"/>
<path d="M0 0 C1.65 0 3.3 0 5 0 C5 6.93 5 13.86 5 21 C3.35 21 1.7 21 0 21 C0 14.07 0 7.14 0 0 Z " fill="#EEC807" transform="translate(706,42)"/>
<path d="M0 0 C1.65 0 3.3 0 5 0 C5 6.93 5 13.86 5 21 C3.35 21 1.7 21 0 21 C0 14.07 0 7.14 0 0 Z " fill="#EEC706" transform="translate(310,42)"/>
<path d="M0 0 C8.58 0 17.16 0 26 0 C26 1.32 26 2.64 26 4 C17.42 4 8.84 4 0 4 C0 2.68 0 1.36 0 0 Z " fill="#F5CD02" transform="translate(359,53)"/>
<path d="M0 0 C1.65 0 3.3 0 5 0 C5.33 0.66 5.66 1.32 6 2 C6.66 1.34 7.32 0.68 8 0 C10.625 -0.125 10.625 -0.125 13 0 C12.67 1.65 12.34 3.3 12 5 C10.7934375 4.9690625 10.7934375 4.9690625 9.5625 4.9375 C7.06645115 4.70366379 7.06645115 4.70366379 6 6 C5.76807135 7.51469448 5.58784762 9.03754562 5.4375 10.5625 C5.35371094 11.38878906 5.26992188 12.21507812 5.18359375 13.06640625 C5.12300781 13.70449219 5.06242188 14.34257813 5 15 C3.35 15 1.7 15 0 15 C0 10.05 0 5.1 0 0 Z " fill="#EFC806" transform="translate(660,48)"/>
<path d="M0 0 C1.65 0 3.3 0 5 0 C5.33 0.66 5.66 1.32 6 2 C6.66 1.34 7.32 0.68 8 0 C9.32 0 10.64 0 12 0 C12 1.65 12 3.3 12 5 C10.7934375 4.9690625 10.7934375 4.9690625 9.5625 4.9375 C7.06645115 4.70366379 7.06645115 4.70366379 6 6 C5.76807135 7.51469448 5.58784762 9.03754562 5.4375 10.5625 C5.35371094 11.38878906 5.26992188 12.21507812 5.18359375 13.06640625 C5.12300781 13.70449219 5.06242188 14.34257813 5 15 C3.35 15 1.7 15 0 15 C0 10.05 0 5.1 0 0 Z " fill="#EFC806" transform="translate(579,48)"/>
<path d="M0 0 C1.65 0 3.3 0 5 0 C5.33 0.66 5.66 1.32 6 2 C6.66 1.34 7.32 0.68 8 0 C9.32 0 10.64 0 12 0 C12 1.65 12 3.3 12 5 C10.7934375 4.9690625 10.7934375 4.9690625 9.5625 4.9375 C7.06645115 4.70366379 7.06645115 4.70366379 6 6 C5.76807135 7.51469448 5.58784762 9.03754562 5.4375 10.5625 C5.35371094 11.38878906 5.26992188 12.21507812 5.18359375 13.06640625 C5.12300781 13.70449219 5.06242188 14.34257813 5 15 C3.35 15 1.7 15 0 15 C0 10.05 0 5.1 0 0 Z " fill="#EFC806" transform="translate(527,48)"/>
<path d="M0 0 C1.65 0 3.3 0 5 0 C5.33 0.66 5.66 1.32 6 2 C6.66 1.34 7.32 0.68 8 0 C9.32 0 10.64 0 12 0 C12 1.65 12 3.3 12 5 C10.7934375 4.9690625 10.7934375 4.9690625 9.5625 4.9375 C7.06645115 4.70366379 7.06645115 4.70366379 6 6 C5.76807135 7.51469448 5.58784762 9.03754562 5.4375 10.5625 C5.35371094 11.38878906 5.26992187 12.21507812 5.18359375 13.06640625 C5.12300781 13.70449219 5.06242187 14.34257813 5 15 C3.35 15 1.7 15 0 15 C0 10.05 0 5.1 0 0 Z " fill="#EDC604" transform="translate(84,48)"/>
<path d="M0 0 C0.66 0.33 1.32 0.66 2 1 C2.02685938 3.14576637 2.04633088 5.29162645 2.0625 7.4375 C2.07410156 8.63246094 2.08570313 9.82742187 2.09765625 11.05859375 C2 14 2 14 1 15 C-0.51928038 15.07179964 -2.04167482 15.08392007 -3.5625 15.0625 C-4.38878906 15.05347656 -5.21507812 15.04445313 -6.06640625 15.03515625 C-6.70449219 15.02355469 -7.34257812 15.01195313 -8 15 C-8 14.67 -8 14.34 -8 14 C-5.69 14 -3.38 14 -1 14 C-1 13.01 -1 12.02 -1 11 C-2.32 11 -3.64 11 -5 11 C-5 8.03 -5 5.06 -5 2 C-3.35 2 -1.7 2 0 2 C0 1.34 0 0.68 0 0 Z " fill="#112139" transform="translate(139,49)"/>
<path d="M0 0 C1.65 0 3.3 0 5 0 C5 4.95 5 9.9 5 15 C3.35 15 1.7 15 0 15 C-1.5111995 9.96266834 -0.64599773 5.11828973 0 0 Z " fill="#EAC301" transform="translate(301,48)"/>
<path d="M0 0 C1.65 0 3.3 0 5 0 C5 4.95 5 9.9 5 15 C3.35 15 1.7 15 0 15 C-1.5111995 9.96266834 -0.64599773 5.11828973 0 0 Z " fill="#EAC301" transform="translate(109,48)"/>
<path d="M0 0 C1.65 0 3.3 0 5 0 C5 4.95 5 9.9 5 15 C3.35 15 1.7 15 0 15 C0 10.05 0 5.1 0 0 Z " fill="#EEC705" transform="translate(118,48)"/>
<path d="M0 0 C0.66 0.66 1.32 1.32 2 2 C5.58343976 2.16677282 5.58343976 2.16677282 9 2 C9.33 2.66 9.66 3.32 10 4 C8.72125 4.12375 7.4425 4.2475 6.125 4.375 C2.65209064 4.69042399 2.65209064 4.69042399 0 7 C-0.16687448 9.58354218 -0.16687448 9.58354218 0 12 C-0.66 12 -1.32 12 -2 12 C-2.33 12.66 -2.66 13.32 -3 14 C-3 13.01 -3 12.02 -3 11 C-3.99 11 -4.98 11 -6 11 C-6 8.36 -6 5.72 -6 3 C-4.35 3 -2.7 3 -1 3 C-0.67 2.01 -0.34 1.02 0 0 Z " fill="#233555" transform="translate(687,49)"/>
<path d="M0 0 C2.475 0.99 2.475 0.99 5 2 C5.33 1.67 5.66 1.34 6 1 C7.66617115 0.95936168 9.33388095 0.957279 11 1 C10.67 1.66 10.34 2.32 10 3 C9.34 2.67 8.68 2.34 8 2 C8 2.66 8 3.32 8 4 C8.99 4 9.98 4 11 4 C11 5.32 11 6.64 11 8 C3.75 8 3.75 8 0 7 C-0.38133299 5.0085944 -0.71325582 3.00720923 -1 1 C-0.67 0.67 -0.34 0.34 0 0 Z " fill="#6F7B90" transform="translate(151,15)"/>
<path d="M0 0 C1.98 0 3.96 0 6 0 C6.84454356 3.37817425 7.10844919 5.67465243 6 9 C4.02 9 2.04 9 0 9 C0 6.03 0 3.06 0 0 Z " fill="#A5ABB6" transform="translate(184,14)"/>
<path d="M0 0 C1.64574566 -0.02688151 3.29161413 -0.04634123 4.9375 -0.0625 C5.85402344 -0.07410156 6.77054687 -0.08570313 7.71484375 -0.09765625 C10 0 10 0 11 1 C11.04080783 2.99958364 11.04254356 5.00045254 11 7 C10.01 7 9.02 7 8 7 C7.67 5.35 7.34 3.7 7 2 C6.67 3.65 6.34 5.3 6 7 C5.34 7 4.68 7 4 7 C4 5.02 4 3.04 4 1 C3.34 1 2.68 1 2 1 C2 2.98 2 4.96 2 7 C1.34 7 0.68 7 0 7 C0 4.69 0 2.38 0 0 Z " fill="#D3D4D6" transform="translate(74,16)"/>
<path d="M0 0 C3.53571429 0.53571429 3.53571429 0.53571429 5 2 C5.1875 4.4375 5.1875 4.4375 5 7 C4.34 7.66 3.68 8.32 3 9 C-0.53571429 8.46428571 -0.53571429 8.46428571 -2 7 C-2.1875 4.5625 -2.1875 4.5625 -2 2 C-1.34 1.34 -0.68 0.68 0 0 Z " fill="#26334A" transform="translate(647,51)"/>
<path d="M0 0 C1.98 0 3.96 0 6 0 C6.77321882 2.98241547 7.41196203 5.97580475 8 9 C7.01 9 6.02 9 5 9 C4.67 8.01 4.34 7.02 4 6 C3.34 5.67 2.68 5.34 2 5 C2 6.32 2 7.64 2 9 C1.34 9 0.68 9 0 9 C0 6.03 0 3.06 0 0 Z " fill="#A0A7B2" transform="translate(114,14)"/>
<path d="M0 0 C1.98 0 3.96 0 6 0 C6.77321882 2.98241547 7.41196203 5.97580475 8 9 C7.01 9 6.02 9 5 9 C4.67 8.01 4.34 7.02 4 6 C3.34 5.67 2.68 5.34 2 5 C2 6.32 2 7.64 2 9 C1.34 9 0.68 9 0 9 C0 6.03 0 3.06 0 0 Z " fill="#A0A6B0" transform="translate(25,14)"/>
<path d="M0 0 C1.98 0 3.96 0 6 0 C6.33 1.65 6.66 3.3 7 5 C5.35 5.33 3.7 5.66 2 6 C2 6.99 2 7.98 2 9 C1.34 9 0.68 9 0 9 C0 6.03 0 3.06 0 0 Z " fill="#D0D1D4" transform="translate(278,14)"/>
<path d="M0 0 C1.67542976 0.28604898 3.34385343 0.61781233 5 1 C5.625 2.875 5.625 2.875 6 5 C5.34 5.66 4.68 6.32 4 7 C1.375 6.625 1.375 6.625 -1 6 C-1.042721 4.33388095 -1.04063832 2.66617115 -1 1 C-0.67 0.67 -0.34 0.34 0 0 Z " fill="#959DAC" transform="translate(288,16)"/>
<path d="M0 0 C-0.66 0 -1.32 0 -2 0 C-2 1.65 -2 3.3 -2 5 C-1.34 5.33 -0.68 5.66 0 6 C-1.32 5.67 -2.64 5.34 -4 5 C-4 3.35 -4 1.7 -4 0 C-4.99 0.33 -5.98 0.66 -7 1 C-7.33 2.65 -7.66 4.3 -8 6 C-8.66 6 -9.32 6 -10 6 C-10 3.69 -10 1.38 -10 -1 C-5.92224809 -1.9267618 -3.57818963 -2.33958553 0 0 Z " fill="#D0D2D4" transform="translate(305,17)"/>
<path d="M0 0 C1.99954746 -0.04254356 4.00041636 -0.04080783 6 0 C7 1 7 1 7.0625 4.0625 C7.041875 5.031875 7.02125 6.00125 7 7 C6.01 7 5.02 7 4 7 C3.67 5.35 3.34 3.7 3 2 C2.67 3.65 2.34 5.3 2 7 C1.34 7 0.68 7 0 7 C0 4.69 0 2.38 0 0 Z " fill="#BBBEC5" transform="translate(201,16)"/>
<path d="M0 0 C1.99954746 -0.04254356 4.00041636 -0.04080783 6 0 C7 1 7 1 7.0625 4.0625 C7.041875 5.031875 7.02125 6.00125 7 7 C6.01 7 5.02 7 4 7 C3.67 5.35 3.34 3.7 3 2 C2.67 3.65 2.34 5.3 2 7 C1.34 7 0.68 7 0 7 C0 4.69 0 2.38 0 0 Z " fill="#BBBEC4" transform="translate(95,16)"/>
<path d="M0 0 C0.66 0 1.32 0 2 0 C2.33 1.32 2.66 2.64 3 4 C3.99 4 4.98 4 6 4 C6 5.32 6 6.64 6 8 C6.33 8.66 6.66 9.32 7 10 C6.401875 9.814375 5.80375 9.62875 5.1875 9.4375 C2.83591238 8.77906313 2.83591238 8.77906313 0 10 C0 6.7 0 3.4 0 0 Z " fill="#CFD0D3" transform="translate(210,13)"/>
<path d="M0 0 C3 3 3 3 3.07421875 6.13671875 C2.94660156 7.30847656 2.81898437 8.48023438 2.6875 9.6875 C2.56761719 10.86699219 2.44773437 12.04648437 2.32421875 13.26171875 C2.21722656 14.16535156 2.11023438 15.06898437 2 16 C0.02 16 -1.96 16 -4 16 C-2.68 15.67 -1.36 15.34 0 15 C0 10.05 0 5.1 0 0 Z " fill="#252921" transform="translate(123,48)"/>
<path d="M0 0 C0.66 0 1.32 0 2 0 C2 1.98 2 3.96 2 6 C2.66 6 3.32 6 4 6 C4 4.02 4 2.04 4 0 C4.99 0 5.98 0 7 0 C7 2.31 7 4.62 7 7 C5.00045254 7.04254356 2.99958364 7.04080783 1 7 C0 6 0 6 -0.0625 2.9375 C-0.041875 1.968125 -0.02125 0.99875 0 0 Z " fill="#BCBFC5" transform="translate(138,16)"/>
<path d="M0 0 C0.66 0 1.32 0 2 0 C2 1.98 2 3.96 2 6 C2.66 6 3.32 6 4 6 C4 4.02 4 2.04 4 0 C4.99 0 5.98 0 7 0 C7 2.31 7 4.62 7 7 C5.00045254 7.04254356 2.99958364 7.04080783 1 7 C0 6 0 6 -0.0625 2.9375 C-0.041875 1.968125 -0.02125 0.99875 0 0 Z " fill="#BBBFC4" transform="translate(55,16)"/>
<path d="M0 0 C1.66611905 -0.042721 3.33382885 -0.04063832 5 0 C6 1 6 1 6.0625 4.0625 C6.041875 5.031875 6.02125 6.00125 6 7 C4.02 7 2.04 7 0 7 C0 5.68 0 4.36 0 3 C1.32 3 2.64 3 4 3 C4 2.34 4 1.68 4 1 C2.68 0.67 1.36 0.34 0 0 Z " fill="#B9BDC5" transform="translate(307,16)"/>
<path d="M0 0 C1.66611905 -0.042721 3.33382885 -0.04063832 5 0 C6 1 6 1 6.0625 4.0625 C6.041875 5.031875 6.02125 6.00125 6 7 C4.02 7 2.04 7 0 7 C0 5.68 0 4.36 0 3 C1.32 3 2.64 3 4 3 C4 2.34 4 1.68 4 1 C2.68 0.67 1.36 0.34 0 0 Z " fill="#B9BDC4" transform="translate(231,16)"/>
<path d="M0 0 C1.66611905 -0.042721 3.33382885 -0.04063832 5 0 C6 1 6 1 6.0625 4.0625 C6.041875 5.031875 6.02125 6.00125 6 7 C4.02 7 2.04 7 0 7 C0 5.68 0 4.36 0 3 C1.32 3 2.64 3 4 3 C4 2.34 4 1.68 4 1 C2.68 0.67 1.36 0.34 0 0 Z " fill="#B9BDC4" transform="translate(193,16)"/>
<path d="M0 0 C0.33 0.99 0.66 1.98 1 3 C-2.80211723 4.78923164 -5.79582458 5.4671306 -10 5 C-10.66 4.01 -11.32 3.02 -12 2 C-8.04 2 -4.08 2 0 2 C0 1.34 0 0.68 0 0 Z " fill="#161F29" transform="translate(64,55)"/>
<path d="M0 0 C1.67542976 0.28604898 3.34385343 0.61781233 5 1 C5 1.99 5 2.98 5 4 C3.68 4 2.36 4 1 4 C1 4.66 1 5.32 1 6 C1.99 6.33 2.98 6.66 4 7 C2.35 6.67 0.7 6.34 -1 6 C-1.042721 4.33388095 -1.04063832 2.66617115 -1 1 C-0.67 0.67 -0.34 0.34 0 0 Z " fill="#B0B5BE" transform="translate(254,16)"/>
<path d="M0 0 C1.67542976 0.28604898 3.34385343 0.61781233 5 1 C5 1.99 5 2.98 5 4 C3.68 4 2.36 4 1 4 C1 4.66 1 5.32 1 6 C1.99 6.33 2.98 6.66 4 7 C2.35 6.67 0.7 6.34 -1 6 C-1.042721 4.33388095 -1.04063832 2.66617115 -1 1 C-0.67 0.67 -0.34 0.34 0 0 Z " fill="#B0B5BE" transform="translate(246,16)"/>
<path d="M0 0 C1.67542976 0.28604898 3.34385343 0.61781233 5 1 C5 1.99 5 2.98 5 4 C3.68 4 2.36 4 1 4 C1 4.66 1 5.32 1 6 C1.99 6.33 2.98 6.66 4 7 C2.35 6.67 0.7 6.34 -1 6 C-1.042721 4.33388095 -1.04063832 2.66617115 -1 1 C-0.67 0.67 -0.34 0.34 0 0 Z " fill="#B0B5BD" transform="translate(124,16)"/>
<path d="M0 0 C1.67542976 0.28604898 3.34385343 0.61781233 5 1 C5 1.99 5 2.98 5 4 C3.68 4 2.36 4 1 4 C1 4.66 1 5.32 1 6 C1.99 6.33 2.98 6.66 4 7 C2.35 6.67 0.7 6.34 -1 6 C-1.042721 4.33388095 -1.04063832 2.66617115 -1 1 C-0.67 0.67 -0.34 0.34 0 0 Z " fill="#B0B5BC" transform="translate(88,16)"/>
<path d="M0 0 C1.67542976 0.28604898 3.34385343 0.61781233 5 1 C5 1.99 5 2.98 5 4 C3.68 4 2.36 4 1 4 C1 4.66 1 5.32 1 6 C1.99 6.33 2.98 6.66 4 7 C2.35 6.67 0.7 6.34 -1 6 C-1.042721 4.33388095 -1.04063832 2.66617115 -1 1 C-0.67 0.67 -0.34 0.34 0 0 Z " fill="#B0B4BC" transform="translate(35,16)"/>
<path d="M0 0 C0.66 0.33 1.32 0.66 2 1 C2 1.99 2 2.98 2 4 C1.34 4 0.68 4 0 4 C-0.33 4.66 -0.66 5.32 -1 6 C-3.31 5.34 -5.62 4.68 -8 4 C-8 3.34 -8 2.68 -8 2 C-2.25 1.875 -2.25 1.875 0 3 C0 2.01 0 1.02 0 0 Z " fill="#2C322F" transform="translate(345,49)"/>
<path d="M0 0 C0.66 0.33 1.32 0.66 2 1 C2 1.99 2 2.98 2 4 C1.34 4 0.68 4 0 4 C-0.33 4.66 -0.66 5.32 -1 6 C-3.31 5.34 -5.62 4.68 -8 4 C-8 3.34 -8 2.68 -8 2 C-2.25 1.875 -2.25 1.875 0 3 C0 2.01 0 1.02 0 0 Z " fill="#2C322E" transform="translate(285,49)"/>
<path d="M0 0 C1.65 0 3.3 0 5 0 C5.5625 1.9375 5.5625 1.9375 6 4 C5 5 5 5 2.4375 5.0625 C1.2309375 5.0315625 1.2309375 5.0315625 0 5 C0 3.35 0 1.7 0 0 Z " fill="#1F2D44" transform="translate(626,47)"/>
<path d="M0 0 C0.66 0.33 1.32 0.66 2 1 C2 1.99 2 2.98 2 4 C-2.455 4.495 -2.455 4.495 -7 5 C-7.33 4.01 -7.66 3.02 -8 2 C-2.25 1.875 -2.25 1.875 0 3 C0 2.01 0 1.02 0 0 Z " fill="#30352F" transform="translate(605,49)"/>
<path d="M0 0 C1.65 0 3.3 0 5 0 C4.67 1.65 4.34 3.3 4 5 C2.02 5 0.04 5 -2 5 C-1.34 3.35 -0.68 1.7 0 0 Z " fill="#DFBB06" transform="translate(668,48)"/>
<path d="M0 0 C1.66611905 -0.042721 3.33382885 -0.04063832 5 0 C6 1 6 1 6.0625 4.0625 C6.041875 5.031875 6.02125 6.00125 6 7 C5.01 7 4.02 7 3 7 C2.814375 5.824375 2.814375 5.824375 2.625 4.625 C2.20882007 1.85942178 2.20882007 1.85942178 0 0 Z " fill="#A6ACB6" transform="translate(79,16)"/>
<path d="M0 0 C0.33 0.99 0.66 1.98 1 3 C-1.97 2.505 -1.97 2.505 -5 2 C-5.66 4.31 -6.32 6.62 -7 9 C-7.33 9 -7.66 9 -8 9 C-8.04241723 6.66705225 -8.04092937 4.33297433 -8 2 C-7.67 1.67 -7.34 1.34 -7 1 C-4.66055264 1.28730055 -2.3260857 1.61936779 0 2 C0 1.34 0 0.68 0 0 Z " fill="#1A2022" transform="translate(80,50)"/>
<path d="M0 0 C2.475 0.495 2.475 0.495 5 1 C4.67 2.32 4.34 3.64 4 5 C2.68 5 1.36 5 0 5 C0 3.35 0 1.7 0 0 Z " fill="#152238" transform="translate(238,47)"/>
<path d="M0 0 C2.475 0.495 2.475 0.495 5 1 C4.67 2.32 4.34 3.64 4 5 C2.68 5 1.36 5 0 5 C0 3.35 0 1.7 0 0 Z " fill="#132031" transform="translate(32,47)"/>
<path d="M0 0 C1.65 0 3.3 0 5 0 C5 1.32 5 2.64 5 4 C3.35 4 1.7 4 0 4 C0 2.68 0 1.36 0 0 Z " fill="#16243C" transform="translate(404,55)"/>
<path d="M0 0 C1.65 0 3.3 0 5 0 C4.67 1.65 4.34 3.3 4 5 C2.68 4.67 1.36 4.34 0 4 C0 2.68 0 1.36 0 0 Z " fill="#7F8A9D" transform="translate(280,15)"/>
<path d="M0 0 C1.32 0 2.64 0 4 0 C4 1.65 4 3.3 4 5 C2.02 5 0.04 5 -2 5 C-1.34 3.35 -0.68 1.7 0 0 Z " fill="#E7C103" transform="translate(587,48)"/>
<path d="M0 0 C1.32 0 2.64 0 4 0 C4 1.65 4 3.3 4 5 C2.02 5 0.04 5 -2 5 C-1.34 3.35 -0.68 1.7 0 0 Z " fill="#E7C103" transform="translate(535,48)"/>
<path d="M0 0 C0.99 0.495 0.99 0.495 2 1 C2 1.99 2 2.98 2 4 C2.99 4 3.98 4 5 4 C4.67 4.66 4.34 5.32 4 6 C3.34 5.67 2.68 5.34 2 5 C2 6.32 2 7.64 2 9 C1.34 9 0.68 9 0 9 C0 6.03 0 3.06 0 0 Z " fill="#D1D2D4" transform="translate(114,14)"/>
<path d="M0 0 C0.99 0.495 0.99 0.495 2 1 C2 1.99 2 2.98 2 4 C2.99 4 3.98 4 5 4 C4.67 4.66 4.34 5.32 4 6 C3.34 5.67 2.68 5.34 2 5 C2 6.32 2 7.64 2 9 C1.34 9 0.68 9 0 9 C0 6.03 0 3.06 0 0 Z " fill="#D1D2D4" transform="translate(25,14)"/>
<path d="M0 0 C1.65 0 3.3 0 5 0 C5 1.32 5 2.64 5 4 C3.35 4 1.7 4 0 4 C0 2.68 0 1.36 0 0 Z " fill="#1E2938" transform="translate(404,47)"/>
<path d="M0 0 C1.65 0 3.3 0 5 0 C5 1.32 5 2.64 5 4 C3.35 4 1.7 4 0 4 C0 2.68 0 1.36 0 0 Z " fill="#EEC705" transform="translate(118,42)"/>
<path d="M0 0 C1.32 0.66 2.64 1.32 4 2 C3.34 2 2.68 2 2 2 C2 3.65 2 5.3 2 7 C2.66 7.33 3.32 7.66 4 8 C2.68 7.67 1.36 7.34 0 7 C-0.38133299 5.0085944 -0.71325582 3.00720923 -1 1 C-0.67 0.67 -0.34 0.34 0 0 Z " fill="#CBCDD0" transform="translate(151,15)"/>
<path d="M0 0 C1.32 0.66 2.64 1.32 4 2 C3.34 2 2.68 2 2 2 C2 3.65 2 5.3 2 7 C2.66 7.33 3.32 7.66 4 8 C2.68 7.67 1.36 7.34 0 7 C-0.38133299 5.0085944 -0.71325582 3.00720923 -1 1 C-0.67 0.67 -0.34 0.34 0 0 Z " fill="#CBCDD0" transform="translate(104,15)"/>
<path d="M0 0 C1.32 0.66 2.64 1.32 4 2 C3.34 2 2.68 2 2 2 C2 3.65 2 5.3 2 7 C2.66 7.33 3.32 7.66 4 8 C2.68 7.67 1.36 7.34 0 7 C-0.38133299 5.0085944 -0.71325582 3.00720923 -1 1 C-0.67 0.67 -0.34 0.34 0 0 Z " fill="#CBCDD0" transform="translate(68,15)"/>
<path d="M0 0 C1.65 0 3.3 0 5 0 C4.34 1.32 3.68 2.64 3 4 C1.68 3.67 0.36 3.34 -1 3 C-0.67 2.01 -0.34 1.02 0 0 Z " fill="#293137" transform="translate(692,56)"/>
<path d="M0 0 C1.65 0 3.3 0 5 0 C4.34 1.32 3.68 2.64 3 4 C1.68 3.67 0.36 3.34 -1 3 C-0.67 2.01 -0.34 1.02 0 0 Z " fill="#283033" transform="translate(513,56)"/>
<path d="M0 0 C1.65 0 3.3 0 5 0 C4.34 1.32 3.68 2.64 3 4 C1.68 3.67 0.36 3.34 -1 3 C-0.67 2.01 -0.34 1.02 0 0 Z " fill="#282F31" transform="translate(424,56)"/>
<path d="M0 0 C2.0625 0.4375 2.0625 0.4375 4 1 C3.01 1.495 3.01 1.495 2 2 C1.34786708 4.02463255 1.34786708 4.02463255 1 6 C1.99 6.33 2.98 6.66 4 7 C2.35 6.67 0.7 6.34 -1 6 C-1.042721 4.33388095 -1.04063832 2.66617115 -1 1 C-0.67 0.67 -0.34 0.34 0 0 Z " fill="#B7BBC1" transform="translate(43,16)"/>
<path d="M0 0 C1.5625 1.25 1.5625 1.25 3 3 C2.6875 5.1875 2.6875 5.1875 2 7 C0.02 7 -1.96 7 -4 7 C-2.68 6.67 -1.36 6.34 0 6 C0 4.02 0 2.04 0 0 Z " fill="#272A21" transform="translate(463,57)"/>
<path d="M0 0 C1.98 0 3.96 0 6 0 C6 0.99 6 1.98 6 3 C3.69 3 1.38 3 -1 3 C-0.67 2.01 -0.34 1.02 0 0 Z " fill="#333B35" transform="translate(275,57)"/>
<path d="M0 0 C1.32 0 2.64 0 4 0 C4 1.65 4 3.3 4 5 C2.35 4.67 0.7 4.34 -1 4 C-0.67 2.68 -0.34 1.36 0 0 Z " fill="#0F2448" transform="translate(45,17)"/>
<path d="M0 0 C1.65 0 3.3 0 5 0 C4.34 0.66 3.68 1.32 3 2 C2.35232207 4.57061311 2.35232207 4.57061311 2 7 C1.34 7 0.68 7 0 7 C0 4.69 0 2.38 0 0 Z " fill="#D6D7D7" transform="translate(261,16)"/>
<path d="M0 0 C1.65 0 3.3 0 5 0 C4.34 0.66 3.68 1.32 3 2 C2.35232207 4.57061311 2.35232207 4.57061311 2 7 C1.34 7 0.68 7 0 7 C0 4.69 0 2.38 0 0 Z " fill="#D6D7D7" transform="translate(239,16)"/>
<path d="M0 0 C1.65 0 3.3 0 5 0 C4.34 0.66 3.68 1.32 3 2 C2.35232207 4.57061311 2.35232207 4.57061311 2 7 C1.34 7 0.68 7 0 7 C0 4.69 0 2.38 0 0 Z " fill="#D6D6D7" transform="translate(49,16)"/>
<path d="M0 0 C1.65 0 3.3 0 5 0 C5 0.99 5 1.98 5 3 C2.69 3 0.38 3 -2 3 C-1.34 2.67 -0.68 2.34 0 2 C0 1.34 0 0.68 0 0 Z " fill="#373F3E" transform="translate(596,57)"/>
</svg>
