<?xml version="1.0" encoding="UTF-8"?>
<svg version="1.1" xmlns="http://www.w3.org/2000/svg" width="1067" height="1067">
<path d="M0 0 C352.11 0 704.22 0 1067 0 C1067 352.11 1067 704.22 1067 1067 C714.89 1067 362.78 1067 0 1067 C0 714.89 0 362.78 0 0 Z " fill="#FEFEFE" transform="translate(0,0)"/>
<path d="M0 0 C2.52514187 2.23756721 4.99055591 4.52516777 7.44140625 6.84375 C8.25351562 7.59140625 9.065625 8.3390625 9.90234375 9.109375 C24.90576993 23.40285988 35.54563831 41.41422642 42.44140625 60.84375 C42.6748877 61.49633789 42.90836914 62.14892578 43.14892578 62.82128906 C48.34693302 77.6097822 49.83933464 92.08395009 49.75390625 107.71875 C49.75117203 108.76641037 49.75117203 108.76641037 49.74838257 109.8352356 C49.70179929 120.46396209 49.12023199 130.50958078 46.44140625 140.84375 C46.2079248 141.83109131 46.2079248 141.83109131 45.96972656 142.83837891 C39.88859788 168.39489873 25.92626391 190.45921721 7.44140625 208.84375 C6.5596875 209.72546875 5.67796875 210.6071875 4.76953125 211.515625 C-13.78799896 229.19469224 -37.74348054 240.21106784 -62.55859375 245.71875 C-63.52611572 245.93426514 -64.4936377 246.14978027 -65.49047852 246.37182617 C-71.16171195 247.557366 -75.56060726 247.84375 -81.55859375 247.84375 C-81.55859375 211.87375 -81.55859375 175.90375 -81.55859375 138.84375 C-77.59859375 136.86375 -73.63859375 134.88375 -69.55859375 132.84375 C-62.19214926 125.82260759 -58.40634235 119.2441601 -58.05859375 108.96875 C-58.35353777 99.85497964 -60.60767835 91.96139639 -66.99609375 85.26953125 C-75.15813755 77.82166628 -83.19572884 76.25108294 -93.93359375 76.49609375 C-98.85738035 76.96831035 -102.40402479 78.2155158 -106.55859375 80.84375 C-107.26628906 81.27945313 -107.97398437 81.71515625 -108.703125 82.1640625 C-115.2017901 86.57688519 -119.08159565 92.42361974 -121.55859375 99.84375 C-122.62574808 109.89485472 -121.59353685 118.88430639 -115.86328125 127.34765625 C-110.82225801 133.54178805 -107.48343483 134.88132946 -99.55859375 138.84375 C-99.55859375 174.81375 -99.55859375 210.78375 -99.55859375 247.84375 C-115.8520603 246.67993096 -115.8520603 246.67993096 -123.62109375 244.59375 C-124.47614502 244.36977539 -125.33119629 244.14580078 -126.2121582 243.91503906 C-150.1900697 237.46544898 -170.773443 225.01296479 -188.55859375 207.84375 C-189.27660156 207.17730469 -189.99460938 206.51085937 -190.734375 205.82421875 C-213.6705245 183.99121071 -228.87630199 149.84723914 -229.91981506 118.26618958 C-229.96987252 115.33890611 -229.97501464 112.41414357 -229.94970703 109.48657227 C-229.93356659 107.27753274 -229.94970912 105.07031455 -229.96875 102.86132812 C-230.00968752 75.09703891 -220.31598918 47.00996811 -203.55859375 24.84375 C-202.89730469 23.96203125 -202.23601562 23.0803125 -201.5546875 22.171875 C-178.50988765 -7.19645188 -145.5350306 -26.9747693 -108.34765625 -31.75 C-69.15199008 -35.72661691 -30.36614581 -25.59101143 0 0 Z " fill="#22B3E8" transform="translate(356.55859375,424.15625)"/>
<path d="M0 0 C138.83506944 0 138.83506944 0 165.53515625 25.40625 C176.94028278 37.40784115 184.31971156 51.51578539 184.30078125 68.1796875 C184.30506638 69.03249298 184.3093515 69.88529846 184.31376648 70.76394653 C184.31947585 72.55730304 184.32003527 74.35068268 184.31567383 76.14404297 C184.31251655 78.86076093 184.33600612 81.57638516 184.36132812 84.29296875 C184.42598415 101.39380007 180.69964272 114.3589765 168.77734375 127.30859375 C166.05371437 129.90053116 163.14601685 131.94545838 160 134 C160.67804688 134.38929688 161.35609375 134.77859375 162.0546875 135.1796875 C178.86856861 145.2866465 189.35030181 160.3252654 195 179 C199.85050647 203.46212214 195.90997039 229.03334683 182 250 C178.69293078 254.35501391 174.90260403 258.18211241 171 262 C170.30519531 262.72703125 169.61039063 263.4540625 168.89453125 264.203125 C158.00159285 274.90643778 143.69538683 280.14379692 129 283 C125.7 283.66 122.4 284.32 119 285 C79.73 285 40.46 285 0 285 C0 190.95 0 96.9 0 0 Z " fill="#2F2B77" transform="translate(659,391)"/>
<path d="M0 0 C2.08720866 1.84299548 4.13141518 3.70907448 6.12890625 5.6484375 C4.46635324 11.36165987 1.83706799 16.46940927 -0.84375 21.75390625 C-1.32686142 22.71492752 -1.80997284 23.67594879 -2.307724 24.66609192 C-3.84587729 27.72464001 -5.38937089 30.78044997 -6.93359375 33.8359375 C-8.48067829 36.90248436 -10.02658905 39.9696087 -11.57017517 43.03791809 C-12.52952943 44.9443733 -13.49102023 46.84975516 -14.45484924 48.75395203 C-14.88877487 49.61527237 -15.3227005 50.47659271 -15.76977539 51.36401367 C-16.34363731 52.49935799 -16.34363731 52.49935799 -16.92909241 53.65763855 C-17.98044025 55.77660958 -17.98044025 55.77660958 -18.87109375 58.6484375 C-22.38835097 57.20478715 -24.97343537 54.98386664 -27.84350586 52.56054688 C-42.5394699 40.20484863 -58.52413356 33.40592124 -77.80859375 33.2109375 C-78.5771167 33.20070557 -79.34563965 33.19047363 -80.13745117 33.17993164 C-88.00375644 33.30139602 -97.84492243 35.59391286 -103.53515625 41.32421875 C-108.72342415 47.26244955 -109.34698328 51.04354125 -109.2734375 59.02734375 C-108.49433803 66.03923895 -104.63822646 70.42017323 -99.37109375 74.8359375 C-89.4805112 81.58371812 -77.42309013 84.89911092 -66.203125 88.75732422 C-36.87383045 98.86103403 -9.65333074 115.42581878 4.50390625 144.0234375 C12.63773995 163.11021772 14.22697434 184.4300143 6.5 203.97265625 C2.37886947 213.60117443 -3.02217086 221.76280164 -9.87109375 229.6484375 C-10.83982422 230.76798828 -10.83982422 230.76798828 -11.828125 231.91015625 C-28.36796896 249.63390483 -52.89508299 258.65237044 -76.703125 259.97265625 C-99.58590139 260.73308379 -121.01312011 254.23978163 -141.08300781 243.59326172 C-142.65668985 242.76172848 -144.24343813 241.95502338 -145.83203125 241.15234375 C-153.71629421 237.07148624 -160.79600492 231.97587079 -167.87109375 226.6484375 C-168.43022461 226.23062012 -168.98935547 225.81280273 -169.56542969 225.38232422 C-176.43936723 220.19926899 -176.43936723 220.19926899 -178.87109375 217.6484375 C-178.87109375 213.39869852 -178.71963243 212.96321152 -176.23046875 209.8828125 C-175.66013916 209.16536865 -175.08980957 208.4479248 -174.50219727 207.70874023 C-173.88143311 206.94634033 -173.26066895 206.18394043 -172.62109375 205.3984375 C-171.33207098 203.78095312 -170.04433466 202.16244278 -168.7578125 200.54296875 C-167.78013916 199.31827881 -167.78013916 199.31827881 -166.78271484 198.06884766 C-163.93125523 194.4584555 -161.17818221 190.77785166 -158.43359375 187.0859375 C-154.30974966 181.555868 -150.14400662 176.06480593 -145.87109375 170.6484375 C-141.76048513 171.21206705 -139.44847898 173.42801737 -136.30859375 176.0234375 C-124.90555289 185.11759131 -111.6709617 192.86738089 -97.87109375 197.6484375 C-96.87529297 198.01195312 -96.87529297 198.01195312 -95.859375 198.3828125 C-85.27584631 201.66659079 -72.73894892 200.37317433 -62.68359375 195.9609375 C-57.24963073 193.06499314 -53.23502261 188.31758817 -50.87109375 182.6484375 C-49.5916583 174.97182481 -51.76320659 169.08052397 -55.87109375 162.6484375 C-63.6577396 151.92557728 -77.18749967 147.62901091 -89.04248047 142.75585938 C-149.50352268 117.90039874 -149.50352268 117.90039874 -163.87109375 88.6484375 C-164.31324219 87.76285156 -164.75539063 86.87726563 -165.2109375 85.96484375 C-172.56275171 69.51342555 -173.79528144 48.29423982 -167.47265625 31.421875 C-158.27167997 8.97794162 -141.09295756 -7.90321524 -118.91210938 -17.515625 C-80.53271954 -33.23464782 -32.2194504 -26.38926414 0 0 Z " fill="#2F2B76" transform="translate(624.87109375,416.3515625)"/>
<path d="M0 0 C20.46 0 40.92 0 62 0 C62 94.05 62 188.1 62 285 C41.54 285 21.08 285 0 285 C0 190.95 0 96.9 0 0 Z " fill="#2F2B77" transform="translate(879,391)"/>
<path d="M0 0 C51.70967742 0 51.70967742 0 62.0625 9.875 C67.24843908 15.97144747 68.56559877 23.14868411 68.5 30.9375 C68.49427979 31.72801758 68.48855957 32.51853516 68.48266602 33.33300781 C68.25649477 40.71365343 66.4392151 45.47633988 61.25 50.79296875 C50.57194359 60.4814639 44.77028326 57 27 57 C27 74.82 27 92.64 27 111 C35.25 111 43.5 111 52 111 C63.00038484 114.13019081 69.55427452 117.84243913 75.67578125 127.546875 C79.95388474 135.47209326 81.43759436 143.95868086 79.34375 152.7578125 C76.09383324 162.81574456 70.75948447 169.53523182 61.625 174.80859375 C42.5984977 183.44413423 19.56090604 178 0 178 C0 119.26 0 60.52 0 0 Z " fill="#FBFCFC" transform="translate(717,444)"/>
<path d="M0 0 C20.46 0 40.92 0 62 0 C62 94.05 62 188.1 62 285 C41.54 285 21.08 285 0 285 C0 190.95 0 96.9 0 0 Z M2 2 C2 94.73 2 187.46 2 283 C21.14 283 40.28 283 60 283 C60 190.27 60 97.54 60 2 C40.86 2 21.72 2 2 2 Z " fill="#1E1E2E" transform="translate(879,391)"/>
<path d="M0 0 C19.14 0 38.28 0 58 0 C58 92.73 58 185.46 58 281 C38.86 281 19.72 281 0 281 C0 188.27 0 95.54 0 0 Z M5 1 C5 1.66 5 2.32 5 3 C4.01 3 3.02 3 2 3 C1.97713476 38.14374563 1.95950235 73.28748977 1.94893467 108.43124127 C1.94768389 112.57582427 1.94638958 116.72040726 1.94506836 120.86499023 C1.94480605 121.6901376 1.94454374 122.51528497 1.94427348 123.3654368 C1.93991655 136.74400674 1.93202888 150.12257241 1.9228472 163.50113981 C1.91351129 177.2183649 1.90794452 190.93558774 1.90591151 204.65281588 C1.90453615 213.12402426 1.90018487 221.59522055 1.89208353 230.06642521 C1.88681684 235.86740516 1.88519553 241.66837883 1.88649862 247.469361 C1.88714212 250.82131398 1.88558473 254.1732286 1.88079453 257.52518082 C1.87586477 261.15071055 1.87699905 264.77618734 1.87974548 268.40171814 C1.87683264 269.47270703 1.8739198 270.54369592 1.87091869 271.64713901 C1.87290974 272.61054724 1.87490079 273.57395547 1.87695217 274.56655788 C1.87657245 275.40460065 1.87619273 276.24264342 1.8758015 277.10608143 C1.79174379 279.01151722 1.79174379 279.01151722 3 280 C4.68801985 280.09353163 6.37995207 280.11744791 8.07055664 280.11352539 C9.15160172 280.11344986 10.23264679 280.11337433 11.34645081 280.11329651 C12.5224736 280.10813522 13.6984964 280.10297394 14.91015625 280.09765625 C16.10732773 280.0962413 17.30449921 280.09482635 18.53794861 280.09336853 C22.37949066 280.08774979 26.22097543 280.07519411 30.0625 280.0625 C32.65950437 280.05748741 35.25650965 280.05292409 37.85351562 280.04882812 C44.23569679 280.03777427 50.6178443 280.02101792 57 280 C57.04575345 245.03471819 57.081007 210.06944242 57.10213066 175.10413699 C57.10463215 170.97844154 57.10722078 166.85274614 57.10986328 162.72705078 C57.1103879 161.90568096 57.11091252 161.08431114 57.11145304 160.23805133 C57.12016142 146.92939972 57.13593378 133.62076535 57.15430559 120.31212398 C57.1729926 106.66155595 57.18411418 93.01099695 57.18817699 79.36041665 C57.19092454 70.93372974 57.19961005 62.50709155 57.21583293 54.08041963 C57.22638502 48.30604529 57.22960466 42.53169621 57.22700275 36.75731292 C57.22571868 33.42317621 57.22880543 30.08919369 57.23841095 26.7550602 C57.24830831 23.14366506 57.24598788 19.5324812 57.24050903 15.92108154 C57.24924756 14.33354242 57.24924756 14.33354242 57.25816262 12.7139318 C57.25418052 11.74803382 57.25019842 10.78213584 57.24609566 9.78696823 C57.2468551 8.95310239 57.24761454 8.11923654 57.24839699 7.26010203 C57.08804423 4.59805011 57.08804423 4.59805011 55 1 C38.5 1 22 1 5 1 Z " fill="#2D295E" transform="translate(881,393)"/>
<path d="M0 0 C116 0 116 0 119 1 C119 1.66 119 2.32 119 3 C61.085 2.505 61.085 2.505 2 2 C2 95.06 2 188.12 2 284 C1.34 284 0.68 284 0 284 C0 190.28 0 96.56 0 0 Z " fill="#030417" transform="translate(659,391)"/>
<path d="M0 0 C0.99 0.33 1.98 0.66 3 1 C2.34 1 1.68 1 1 1 C1 1.66 1 2.32 1 3 C-36.95 2.67 -74.9 2.34 -114 2 C-114.81740087 5.26960348 -115.12454896 7.48688545 -115.12304783 10.77135086 C-115.12503888 11.73376544 -115.12702993 12.69618002 -115.12908131 13.68775868 C-115.12616847 14.74222715 -115.12325563 15.79669562 -115.12025452 16.88311768 C-115.12110894 18.00542872 -115.12196337 19.12773977 -115.12284368 20.28406024 C-115.1244955 24.05820465 -115.11898193 27.83230497 -115.11352539 31.60644531 C-115.11324343 34.3065094 -115.11335736 37.00657076 -115.1139679 39.70663452 C-115.11449244 45.52662872 -115.11135286 51.34661171 -115.10573006 57.16660309 C-115.09760571 65.58135036 -115.09499887 73.99609221 -115.09374207 82.41084298 C-115.09155302 96.0629609 -115.08489692 109.71507283 -115.07543945 123.3671875 C-115.06626153 136.62955699 -115.05918255 149.89192485 -115.05493164 163.15429688 C-115.05466892 163.97168277 -115.05440619 164.78906866 -115.05413551 165.63122383 C-115.05283048 169.7317768 -115.05156677 173.83232979 -115.05032361 177.93288279 C-115.03995558 211.95525952 -115.02234126 245.97762903 -115 280 C-99.69157974 280.02343147 -84.38316031 280.04102929 -69.0747261 280.05181217 C-61.96566414 280.05695345 -54.85661337 280.06395451 -47.74755859 280.07543945 C-41.54636685 280.08545287 -35.34518321 280.09186917 -29.1439836 280.09408849 C-25.86500272 280.09538436 -22.58605024 280.09893502 -19.3070755 280.10573006 C-15.63341422 280.11303709 -11.95980025 280.11398688 -8.28613281 280.11352539 C-6.68174095 280.1189183 -6.68174095 280.1189183 -5.04493713 280.12442017 C2.01508775 280.11488455 8.97409803 279.6880208 16 279 C16 279.66 16 280.32 16 281 C1.5476675 284.69005182 -12.76957176 284.38589978 -27.59375 284.29296875 C-30.23889922 284.28736301 -32.88402393 284.28294965 -35.5291748 284.28010559 C-41.73713874 284.2708558 -47.94494036 284.24634005 -54.15283346 284.21605712 C-61.23164409 284.18229018 -68.3104633 284.16597163 -75.38933468 284.15097082 C-89.92630607 284.11978235 -104.46315076 284.06716265 -119 284 C-118.34 283.67 -117.68 283.34 -117 283 C-117 189.94 -117 96.88 -117 1 C-2 1 -2 1 0 2 C0 1.34 0 0.68 0 0 Z " fill="#2D2D62" transform="translate(778,392)"/>
<path d="M0 0 C51 0 51 0 61 5 C61 5.99 61 6.98 61 8 C61.5775 8.226875 62.155 8.45375 62.75 8.6875 C66.87349391 11.09287145 68.95383726 14.30331414 70.25 18.8125 C70.4975 19.864375 70.745 20.91625 71 22 C68 21 68 21 67.078125 19.36328125 C66.66820312 18.34814453 66.66820312 18.34814453 66.25 17.3125 C62.37006329 9.12802974 56.31478176 6.69545856 48 3 C32.82 2.67 17.64 2.34 2 2 C2 60.74 2 119.48 2 180 C30.215 179.505 30.215 179.505 59 179 C59 179.66 59 180.32 59 181 C39.91779051 185.77055237 19.66949132 182 0 182 C0 121.94 0 61.88 0 0 Z " fill="#0C0D23" transform="translate(715,442)"/>
<path d="M0 0 C0 0.99 0 1.98 0 3 C-1.65 3.33 -3.3 3.66 -5 4 C-4.67 38.65 -4.34 73.3 -4 109 C8.57293977 108.45859729 8.57293977 108.45859729 19 105 C21.33333333 104.66666667 23.66666667 104.33333333 26 104 C27.42737077 103.48720383 28.84427944 102.94447074 30.25 102.375 C34 101 34 101 37 102 C28.92328081 105.64304992 20.81804196 107.91715181 12.1875 109.8125 C11.20966553 110.03123779 10.23183105 110.24997559 9.22436523 110.4753418 C7.80426147 110.77565308 7.80426147 110.77565308 6.35546875 111.08203125 C5.51653076 111.25968018 4.67759277 111.4373291 3.81323242 111.62036133 C0.2389989 112.10269519 -3.39336844 112 -7 112 C-7 76.03 -7 40.06 -7 3 C-4.69 2.01 -2.38 1.02 0 0 Z " fill="#4FB7DA" transform="translate(282,560)"/>
<path d="M0 0 C0 0.66 0 1.32 0 2 C-14.4523325 5.69005182 -28.76957176 5.38589978 -43.59375 5.29296875 C-46.23889922 5.28736301 -48.88402393 5.28294965 -51.5291748 5.28010559 C-57.73713874 5.2708558 -63.94494036 5.24634005 -70.15283346 5.21605712 C-77.23164409 5.18229018 -84.3104633 5.16597163 -91.38933468 5.15097082 C-105.92630607 5.11978235 -120.46315076 5.06716265 -135 5 C-132.58077447 2.58077447 -132.01233413 2.74732958 -128.70458984 2.73498535 C-127.80229645 2.72671219 -126.90000305 2.71843903 -125.97036743 2.70991516 C-124.97725555 2.71089706 -123.98414368 2.71187897 -122.9609375 2.71289062 C-121.91666595 2.70605759 -120.87239441 2.69922455 -119.79647827 2.69218445 C-117.5200619 2.67856176 -115.2436146 2.66953084 -112.96716309 2.66447449 C-109.34942007 2.65619143 -105.73193025 2.63568334 -102.11425781 2.61193848 C-94.40954296 2.56360412 -86.70480207 2.53083072 -79 2.5 C-70.12323348 2.46419423 -61.24658691 2.4218427 -52.36993408 2.36405945 C-48.83303126 2.34421584 -45.2962238 2.33571137 -41.75927734 2.32775879 C-30.57182823 2.27424814 -19.6159507 1.91004091 -8.52050781 0.42541504 C-5.62521554 0.07555049 -2.90861449 -0.08812384 0 0 Z " fill="#20222E" transform="translate(794,671)"/>
<path d="M0 0 C-3.24859736 2.82486727 -6.83561337 4.3344566 -10.7421875 6.0234375 C-16.24093474 8.00565972 -16.24093474 8.00565972 -20 12 C-21.33333333 12.33333333 -22.66666667 12.66666667 -24 13 C-24.33 13.66 -24.66 14.32 -25 15 C-26.010625 15.53625 -27.02125 16.0725 -28.0625 16.625 C-33.430201 19.57001194 -39.03281979 24.09845936 -41 30 C-41.76054687 30.73734375 -42.52109375 31.4746875 -43.3046875 32.234375 C-46.34405635 35.35303174 -48.15338988 38.40911917 -50.125 42.25 C-50.47119385 42.91314209 -50.8173877 43.57628418 -51.17407227 44.25952148 C-61.12613421 63.69673511 -59.4279548 83.70602843 -53 104 C-53.99 103.67 -54.98 103.34 -56 103 C-57.46960262 99.82565835 -58.17201405 96.39102109 -59 93 C-59.20882813 92.19433594 -59.41765625 91.38867188 -59.6328125 90.55859375 C-63.90929523 71.31442147 -60.69326929 52.98770201 -50.28125 36.375 C-39.26569516 19.69760404 -25.01901936 9.21843078 -7 1 C-4.53721199 -0.231394 -2.7204945 -0.07159196 0 0 Z " fill="#181928" transform="translate(515,397)"/>
<path d="M0 0 C4.12270556 0.85463385 6.30267267 2.68043608 9.5625 5.375 C21.71918058 15.06072427 35.53239693 22.40648951 50 28 C50 28.33 50 28.66 50 29 C35.09294931 28.70185899 20.12731081 16.83673292 8.76171875 8.05078125 C6.24900441 6.18490427 3.71235822 4.55627111 1 3 C0.09121094 4.18142578 0.09121094 4.18142578 -0.8359375 5.38671875 C-1.23546631 5.9060498 -1.63499512 6.42538086 -2.04663086 6.96044922 C-2.94610156 8.12987685 -3.84534622 9.29947838 -4.74438477 10.46923828 C-6.99245455 13.39363911 -9.24305122 16.3159376 -11.50390625 19.23046875 C-17.81362523 27.38347642 -23.93503883 35.66356098 -30 44 C-28.39719273 47.50923002 -27.44221249 48.32806822 -24 50 C-22.29220027 51.62449243 -20.62449243 53.29220027 -19 55 C-18.401875 55.598125 -17.80375 56.19625 -17.1875 56.8125 C-16.5996875 57.4003125 -16.5996875 57.4003125 -16 58 C-20.19442276 58 -22.3965339 55.72983263 -25.5625 53.25 C-26.44711914 52.58484375 -26.44711914 52.58484375 -27.34960938 51.90625 C-30.37141373 49.5685629 -32.69335555 47.65518838 -34 44 C-33.23816406 43.05640625 -32.47632813 42.1128125 -31.69140625 41.140625 C-26.15835098 34.26821548 -20.70559972 27.35832619 -15.4453125 20.2734375 C-12.31716553 16.06772834 -9.12421901 11.91138385 -5.9375 7.75 C-5.35234619 6.98574707 -4.76719238 6.22149414 -4.16430664 5.43408203 C-2.77665566 3.62237484 -1.38858015 1.81099507 0 0 Z " fill="#141524" transform="translate(479,587)"/>
<path d="M0 0 C1.65 0.33 3.3 0.66 5 1 C5 36.97 5 72.94 5 110 C-9 109 -9 109 -12 107 C-7.05 107 -2.1 107 3 107 C3 72.35 3 37.7 3 2 C2.01 2 1.02 2 0 2 C0 1.34 0 0.68 0 0 Z " fill="#34AAD5" transform="translate(252,562)"/>
<path d="M0 0 C0.66 0.33 1.32 0.66 2 1 C-2.37537052 7.01613446 -6.99800097 9.66600032 -14 12 C-20.93 12 -27.86 12 -35 12 C-35 28.83 -35 45.66 -35 63 C-26.89323335 62.84292464 -26.89323335 62.84292464 -18.78759766 62.63964844 C-9.51098178 62.54973908 -1.3824953 64.04247836 5.5625 70.625 C6.20316406 71.21539063 6.84382812 71.80578125 7.50390625 72.4140625 C9 74 9 74 10 76 C9.01 76 8.02 76 7 76 C5.8833865 74.81571296 4.76757393 73.63065838 3.65625 72.44140625 C-7.70602017 62.55301547 -22.79968937 64.56801243 -37 64 C-37 46.18 -37 28.36 -37 10 C-24.625 9.505 -24.625 9.505 -12 9 C-3.68640647 3.88252261 -3.68640647 3.88252261 0 0 Z " fill="#121325" transform="translate(781,491)"/>
<path d="M0 0 C15.7533546 1.51474563 30.05549679 11.26520657 40.3359375 22.75390625 C45.23833916 29.3709977 44.81835055 37.13381406 44 45 C41.17752841 52.81428086 34.91134675 56.71520047 27.76953125 60.265625 C26 61 26 61 24 61 C24 60.34 24 59.68 24 59 C24.65226563 58.72027344 25.30453125 58.44054687 25.9765625 58.15234375 C33.41816133 54.738867 38.76413428 50.70513318 42 43 C43.27943545 35.32338731 41.10788716 29.43208647 37 23 C30.35932409 13.85523588 19.82561347 9.8088086 9.69921875 5.578125 C6.39034534 4.19377412 3.19002747 2.64199863 0 1 C0 0.67 0 0.34 0 0 Z " fill="#0D0E1D" transform="translate(532,556)"/>
<path d="M0 0 C8.41343425 3.64702515 12.66997716 13.97584857 16 22 C17.74140119 27.91037953 18.2961438 33.17775801 18.265625 39.3203125 C18.26753845 40.18260468 18.2694519 41.04489685 18.27142334 41.93331909 C18.2727759 43.74347223 18.26914488 45.55363539 18.26074219 47.36376953 C18.25000294 50.12424557 18.26068259 52.88407482 18.2734375 55.64453125 C18.27211625 57.41145976 18.26955458 59.17838787 18.265625 60.9453125 C18.26967346 61.76419952 18.27372192 62.58308655 18.27789307 63.42678833 C18.24059522 68.00923942 17.74321418 71.68524197 16 76 C15.34 76 14.68 76 14 76 C14.144375 75.27039063 14.28875 74.54078125 14.4375 73.7890625 C17.32648965 57.5384957 16.70878463 40.25270779 14 24 C13.01 23.67 12.02 23.34 11 23 C10.896875 21.906875 10.79375 20.81375 10.6875 19.6875 C9.97920402 15.88845793 9.64635355 15.41623585 7 13 C7 11.68 7 10.36 7 9 C6.34 9 5.68 9 5 9 C1.125 2.25 1.125 2.25 0 0 Z " fill="#121226" transform="translate(825,420)"/>
<path d="M0 0 C0 0.66 0 1.32 0 2 C-0.67240723 1.84853516 -1.34481445 1.69707031 -2.03759766 1.54101562 C-21.61601007 -2.77946242 -40.06394646 -4.35531434 -60 -2 C-60 -1.34 -60 -0.68 -60 0 C-63.3 0 -66.6 0 -70 0 C-70 -0.66 -70 -1.32 -70 -2 C-68.35686339 -2.48833406 -66.71028534 -2.96508966 -65.0625 -3.4375 C-63.68771484 -3.83775391 -63.68771484 -3.83775391 -62.28515625 -4.24609375 C-42.30107689 -8.83221422 -19.22918722 -6.81235025 0 0 Z " fill="#101122" transform="translate(588,397)"/>
<path d="M0 0 C0.33 0 0.66 0 1 0 C1 15.34773782 -8.26995217 28.7971269 -18 40 C-18.96873047 41.11955078 -18.96873047 41.11955078 -19.95703125 42.26171875 C-25.96712434 48.70200798 -35.06396026 56.95552782 -44 58 C-42.625 56.5 -42.625 56.5 -41 55 C-40.34 55 -39.68 55 -39 55 C-39 54.01 -39 53.02 -39 52 C-35 50 -35 50 -33.09765625 49.12890625 C-29.24122918 47.05347343 -26.21055996 43.94452486 -23 41 C-22.40832031 40.48566406 -21.81664062 39.97132813 -21.20703125 39.44140625 C-9.93489161 29.09786393 -4.63158095 14.17610058 0 0 Z " fill="#111224" transform="translate(633,606)"/>
<path d="M0 0 C3.26954202 0.56371414 4.82575883 1.49962266 7 4 C5.33744699 9.71322237 2.70816174 14.82097177 0.02734375 20.10546875 C-0.45576767 21.06649002 -0.93887909 22.02751129 -1.43663025 23.01765442 C-2.97478354 26.07620251 -4.51827714 29.13201247 -6.0625 32.1875 C-7.60958454 35.25404686 -9.1554953 38.3211712 -10.69908142 41.38948059 C-11.65843568 43.2959358 -12.61992648 45.20131766 -13.58375549 47.10551453 C-14.01768112 47.96683487 -14.45160675 48.82815521 -14.89868164 49.71557617 C-15.28125626 50.47247238 -15.66383087 51.22936859 -16.05799866 52.00920105 C-17.1093465 54.12817208 -17.1093465 54.12817208 -18 57 C-21.95969176 55.32770299 -25.0161201 52.63695006 -28.25 49.875 C-28.80429687 49.40707031 -29.35859375 48.93914062 -29.9296875 48.45703125 C-31.28947326 47.30824672 -32.64515165 46.15460347 -34 45 C-29.42857143 45 -29.42857143 45 -27 46 C-25.32932867 47.99665598 -23.66247014 49.99651034 -22 52 C-21.01 52 -20.02 52 -19 52 C-13.82887856 41.79110983 -8.82050101 31.51410337 -3.94604492 21.15991211 C-1.17383657 15.3102935 1.77686948 9.61423354 5 4 C4.360625 3.71125 3.72125 3.4225 3.0625 3.125 C1 2 1 2 0 0 Z " fill="#111221" transform="translate(624,418)"/>
<path d="M0 0 C0.66 0.33 1.32 0.66 2 1 C1.06027344 1.79664063 1.06027344 1.79664063 0.1015625 2.609375 C-0.71570313 3.31578125 -1.53296875 4.0221875 -2.375 4.75 C-3.59316406 5.79414063 -3.59316406 5.79414063 -4.8359375 6.859375 C-8.88398716 10.86358297 -9.35086547 14.03902968 -9.5 19.6875 C-9.37553097 26.74562639 -7.93339299 30.95697606 -3 36 C-0.11803043 38.5211376 2.8507364 40.82350893 6 43 C5.67 43.66 5.34 44.32 5 45 C-3.80251578 39.59191841 -3.80251578 39.59191841 -6.875 35.6875 C-8.78517611 32.76714893 -8.78517611 32.76714893 -12 32 C-14.20107349 25.5126255 -14.98927 18.95708 -13.3125 12.25 C-10.35531201 7.18053488 -5.25432164 2.62716082 0 0 Z " fill="#2B2958" transform="translate(525,452)"/>
<path d="M0 0 C0.66 0.33 1.32 0.66 2 1 C1.236875 1.45375 0.47375 1.9075 -0.3125 2.375 C-2.23632814 3.53824492 -4.12941224 4.7529415 -6 6 C-12.93 5.67 -19.86 5.34 -27 5 C-27 20.84 -27 36.68 -27 53 C-21.06 53 -15.12 53 -9 53 C-7.35 53.33 -5.7 53.66 -4 54 C-4 54.33 -4 54.66 -4 55 C-11.92 55 -19.84 55 -28 55 C-28 38.17 -28 21.34 -28 4 C-17.605 3.505 -17.605 3.505 -7 3 C-4.69 2.01 -2.38 1.02 0 0 Z " fill="#2B295C" transform="translate(774,499)"/>
<path d="M0 0 C0.33 0 0.66 0 1 0 C1.33 16.17 1.66 32.34 2 49 C10.10585995 49.16981382 10.10585995 49.16981382 18.21240234 49.29785156 C27.38530129 49.57029971 35.68765242 51.10896493 42.5625 57.625 C43.20316406 58.21539063 43.84382812 58.80578125 44.50390625 59.4140625 C46 61 46 61 47 63 C46.01 63 45.02 63 44 63 C42.8833865 61.81571296 41.76757393 60.63065838 40.65625 59.44140625 C29.29397983 49.55301547 14.20031063 51.56801243 0 51 C0 34.17 0 17.34 0 0 Z " fill="#010106" transform="translate(744,504)"/>
<path d="M0 0 C1.24394531 -0.00257813 2.48789062 -0.00515625 3.76953125 -0.0078125 C5.05730469 -0.00007813 6.34507812 0.00765625 7.671875 0.015625 C8.94417969 0.00789063 10.21648438 0.00015625 11.52734375 -0.0078125 C29.56757085 0.02942223 29.56757085 0.02942223 37.421875 5.265625 C38.4325 5.575 39.443125 5.884375 40.484375 6.203125 C43.73334957 7.37828601 45.17147536 8.6937397 47.421875 11.265625 C48.081875 11.925625 48.741875 12.585625 49.421875 13.265625 C45.54692496 13.265625 43.63082793 11.87605261 40.234375 10.015625 C23.84678683 1.55095284 5.33030456 -0.431668 -12.578125 4.265625 C-12.578125 3.605625 -12.578125 2.945625 -12.578125 2.265625 C-8.23727705 0.616725 -4.63513484 0.00933696 0 0 Z " fill="#101124" transform="translate(540.578125,447.734375)"/>
<path d="M0 0 C0.66 0 1.32 0 2 0 C6.21852495 12.72232745 6.5323402 24.77597142 6.35668945 38.0871582 C6.3118948 41.48338509 6.29512917 44.87890233 6.28320312 48.27539062 C6.26980542 50.43230203 6.25488984 52.58920468 6.23828125 54.74609375 C6.23089432 55.76255478 6.22350739 56.77901581 6.21589661 57.82627869 C6.20306137 58.75557693 6.19022614 59.68487518 6.17700195 60.64233398 C6.16715775 61.46233383 6.15731354 62.28233368 6.14717102 63.12718201 C6 65 6 65 5 66 C5.061875 67.27875 5.12375 68.5575 5.1875 69.875 C5.23046875 72.0546875 5.23046875 72.0546875 5 74 C3 76 3 76 1 77 C1.42392497 73.39663775 1.85471372 69.81747069 2.48974609 66.24438477 C3.89612753 58.19918813 4.31137792 50.32179147 4.26074219 42.17138672 C4.25004454 40.13348406 4.26069771 38.09646959 4.2734375 36.05859375 C4.28614989 23.80633828 2.92847688 11.92308442 0 0 Z " fill="#C6F1FA" transform="translate(401,492)"/>
<path d="M0 0 C3.16087657 1.03976203 4.01362275 2.02228634 5.78125 4.9140625 C6.37250671 6.14238105 6.94434584 7.38017093 7.5 8.625 C7.80043213 9.29160645 8.10086426 9.95821289 8.41040039 10.64501953 C14.42933389 24.52538409 17.58195221 40.00239523 14 55 C13.67 55 13.34 55 13 55 C12.95101562 53.70707031 12.90203125 52.41414062 12.8515625 51.08203125 C12.11030592 33.1117549 10.16170724 18.42999237 0.91796875 2.64453125 C0 1 0 1 0 0 Z " fill="#141524" transform="translate(621,550)"/>
<path d="M0 0 C0.495 1.485 0.495 1.485 1 3 C-5.74030437 14.89894886 -17.3187652 23.50709285 -29 30 C-29.76699219 30.44472656 -30.53398438 30.88945313 -31.32421875 31.34765625 C-35.8845035 33.84730153 -39.81495847 34.62963989 -45 35 C-43.45315273 31.90630545 -41.12846577 31.39663651 -38 30 C-36.60661421 29.57522025 -35.21056167 29.15912756 -33.8125 28.75 C-19.20211458 23.99427052 -8.31269632 12.42260484 0 0 Z " fill="#0D0F1B" transform="translate(841,636)"/>
<path d="M0 0 C15.83047401 1.74556558 29.64981812 11.31747588 41 22 C40.505 23.485 40.505 23.485 40 25 C39.34 24.67 38.68 24.34 38 24 C38 23.34 38 22.68 38 22 C37.443125 21.938125 36.88625 21.87625 36.3125 21.8125 C33.05421833 20.66769833 31.44304445 18.44304445 29 16 C22.29068763 10.76758029 14.7620299 7.37782816 7 4 C6.21238281 3.65582031 5.42476562 3.31164062 4.61328125 2.95703125 C3.07987216 2.29452387 1.54085186 1.64500776 0 1 C0 0.67 0 0.34 0 0 Z " fill="#121322" transform="translate(783,394)"/>
<path d="M0 0 C1.17755859 0.59748047 1.17755859 0.59748047 2.37890625 1.20703125 C11.09468089 5.60234828 19.93369852 9.39971629 29 13 C29.83789062 13.34933594 30.67578125 13.69867187 31.5390625 14.05859375 C33.78140926 14.91638037 35.90737499 15.49928626 38.25 16 C39.4875 16.33 40.725 16.66 42 17 C42.495 17.99 42.495 17.99 43 19 C28.31529256 18.25331996 12.11152937 10.24515653 0 2 C0 1.34 0 0.68 0 0 Z " fill="#131427" transform="translate(475,653)"/>
<path d="M0 0 C3.98275129 0.64545509 7.36802928 1.89330224 11.0625 3.5 C15.03290536 5.26176865 15.03290536 5.26176865 19.18359375 6.46875 C21.48594253 7.14212513 22.30921801 8.30921801 24 10 C26.03272642 11.11840771 28.09905051 12.17695993 30.1875 13.1875 C31.81751953 13.98220703 31.81751953 13.98220703 33.48046875 14.79296875 C34.31191406 15.19128906 35.14335938 15.58960938 36 16 C32.20109389 17.26630204 31.33605741 16.52629596 27.7734375 14.8671875 C26.74089844 14.39023437 25.70835937 13.91328125 24.64453125 13.421875 C23.56558594 12.91140625 22.48664062 12.4009375 21.375 11.875 C20.31925781 11.38773438 19.26351562 10.90046875 18.17578125 10.3984375 C11.97007269 7.50705408 5.92634577 4.42826178 0 1 C0 0.67 0 0.34 0 0 Z " fill="#19192E" transform="translate(495,539)"/>
<path d="M0 0 C0.69140625 1.66796875 0.69140625 1.66796875 1 4 C-3.46257999 13.31011098 -9.75097266 21.37548633 -19 26 C-17.25 22.125 -17.25 22.125 -15 21 C-14.773125 20.071875 -14.54625 19.14375 -14.3125 18.1875 C-12.69880005 14.26851441 -11.2969277 13.80831225 -7.6796875 11.9921875 C-3.74323757 9.66693568 -2.57724032 5.05576082 -1 1 C-0.67 0.67 -0.34 0.34 0 0 Z " fill="#2D2C56" transform="translate(838,498)"/>
<path d="M0 0 C8.0591155 -0.14154319 16.0271812 0.41388508 24.0625 1 C25.41859916 1.09664416 26.77471886 1.1930005 28.13085938 1.2890625 C31.42078547 1.52322094 34.71047563 1.76027499 38 2 C33.53389903 4.52877709 29.65295394 4.34248407 24.625 4.3125 C23.73973633 4.31121094 22.85447266 4.30992187 21.94238281 4.30859375 C14.32742042 4.19843155 7.35221178 3.04498606 0 1 C0 0.67 0 0.34 0 0 Z " fill="#2C2E37" transform="translate(519,672)"/>
<path d="M0 0 C0.33 0 0.66 0 1 0 C1.33 13.53 1.66 27.06 2 41 C1.67 41 1.34 41 1 41 C-1.34574678 34.41276007 -1.47337814 27.94533464 -1.6875 21 C-1.73455078 19.85015625 -1.78160156 18.7003125 -1.83007812 17.515625 C-2.02789233 11.8860273 -2.16976477 6.52694229 -1 1 C-0.67 0.67 -0.34 0.34 0 0 Z " fill="#D0F6FC" transform="translate(126,515)"/>
<path d="M0 0 C2.25805681 3.38708521 2.05116503 4.48325699 1.36328125 8.34448242 C1.22277344 9.03517822 1.08226562 9.72587402 0.9375 10.4375 C0.79828125 11.14817627 0.6590625 11.85885254 0.515625 12.59106445 C-1.23095019 20.9012916 -4.21538263 28.93759936 -9 36 C-9.66 36 -10.32 36 -11 36 C-10.73058594 35.32710937 -10.46117187 34.65421875 -10.18359375 33.9609375 C-9.79300781 32.98382812 -9.40242187 32.00671875 -9 31 C-8.53722656 29.85789062 -8.07445312 28.71578125 -7.59765625 27.5390625 C-3.99878613 18.44766986 -1.58189934 9.65791175 0 0 Z " fill="#131426" transform="translate(853,599)"/>
<path d="M0 0 C5.62967878 0.51112518 9.81803386 2.02845892 14.8125 4.625 C15.50666016 4.97820312 16.20082031 5.33140625 16.91601562 5.6953125 C22.62054116 8.66145391 27.90057115 12.07736242 33 16 C32.34 16.66 31.68 17.32 31 18 C25.44930876 15.47695853 25.44930876 15.47695853 23.22265625 13.11328125 C20.50724242 10.5314906 17.53298694 9.0297371 14.1875 7.4375 C13.00542969 6.85871094 11.82335937 6.27992188 10.60546875 5.68359375 C7.09641009 4.04501923 3.56845392 2.50322835 0 1 C0 0.67 0 0.34 0 0 Z " fill="#161726" transform="translate(590,399)"/>
<path d="M0 0 C6.67658785 0.6419796 12.25587097 2.83842416 18.1875 5.8125 C19.18426758 6.30943359 19.18426758 6.30943359 20.20117188 6.81640625 C24.77773741 9.17967743 28.86655162 11.92805977 33 15 C32.34 15.66 31.68 16.32 31 17 C30.5359375 16.64808594 30.071875 16.29617188 29.59375 15.93359375 C23.36714691 11.48436057 16.78566485 8.55644612 9.76953125 5.61328125 C6.43857436 4.2142963 3.21315284 2.65404913 0 1 C0 0.67 0 0.34 0 0 Z " fill="#111224" transform="translate(532,556)"/>
<path d="M0 0 C0.66 0 1.32 0 2 0 C2.01417969 0.93457031 2.02835937 1.86914062 2.04296875 2.83203125 C2.45172763 14.08947165 4.8238489 24.21749443 8 35 C7.01 34.67 6.02 34.34 5 34 C0.16063085 23.54696265 -0.32284712 11.28171336 0 0 Z " fill="#11121F" transform="translate(454,466)"/>
<path d="M0 0 C0.66 0.33 1.32 0.66 2 1 C1.06027344 1.79664063 1.06027344 1.79664063 0.1015625 2.609375 C-0.71570313 3.31578125 -1.53296875 4.0221875 -2.375 4.75 C-3.59316406 5.79414063 -3.59316406 5.79414063 -4.8359375 6.859375 C-8.22415747 10.21089945 -9.09196538 12.40133948 -9.1953125 17.109375 C-9.18209031 18.65637104 -9.15834496 20.20330685 -9.125 21.75 C-9.11597656 22.54277344 -9.10695313 23.33554687 -9.09765625 24.15234375 C-9.07417012 26.10169281 -9.03830137 28.05088575 -9 30 C-12.71995517 25.85575286 -12.49811717 22.41376946 -12.34765625 17.04296875 C-11.66714394 11.08657452 -9.39436954 6.96156391 -4.875 3.0625 C-2 1 -2 1 0 0 Z " fill="#161726" transform="translate(525,452)"/>
<path d="M0 0 C2.97 0.99 5.94 1.98 9 3 C9 3.99 9 4.98 9 6 C9.5775 6.226875 10.155 6.45375 10.75 6.6875 C14.87349391 9.09287145 16.95383726 12.30331414 18.25 16.8125 C18.4975 17.864375 18.745 18.91625 19 20 C16 19 16 19 15.078125 17.36328125 C14.80484375 16.68652344 14.5315625 16.00976562 14.25 15.3125 C10.86780618 8.13659067 5.25648408 4.66564721 -2 2 C-1.34 1.34 -0.68 0.68 0 0 Z " fill="#0C0D1A" transform="translate(767,444)"/>
<path d="M0 0 C6.6511847 5.75918909 8.50414158 16.01308528 9.8359375 24.30859375 C10.00480115 27.07876165 9.67180719 29.3176394 9 32 C8.67 32 8.34 32 8 32 C7.89042969 31.24976563 7.78085937 30.49953125 7.66796875 29.7265625 C6.39435676 21.50503469 4.69558402 13.69039699 1.3125 6.0625 C0 3 0 3 0 0 Z " fill="#191A2C" transform="translate(845,552)"/>
<path d="M0 0 C-9.46025236 4.71150363 -19.25465811 8.73263695 -30 8 C-27.42953129 5.42953129 -25.60902106 5.34189486 -22.0625 4.625 C-16.56635181 3.44290161 -11.52724158 1.82484011 -6.33984375 -0.328125 C-3.76541017 -1.06736135 -2.4875588 -0.89621056 0 0 Z " fill="#101122" transform="translate(588,666)"/>
<path d="M0 0 C9.25610885 2.60328061 16.85981939 12.28972908 22 20 C21.625 22.1875 21.625 22.1875 21 24 C18 19.25 18 19.25 18 17 C17.34 17 16.68 17 16 17 C14.84375 15.53125 14.84375 15.53125 13.5 13.5 C10.26876312 8.99073659 6.38398458 5.88822436 1.9765625 2.56640625 C1.32429687 2.04949219 0.67203125 1.53257812 0 1 C0 0.67 0 0.34 0 0 Z " fill="#070715" transform="translate(822,528)"/>
<path d="M0 0 C0.33 0.99 0.66 1.98 1 3 C-0.328125 5.375 -0.328125 5.375 -2.25 8 C-2.87390625 8.86625 -3.4978125 9.7325 -4.140625 10.625 C-7.37431238 14.75542421 -10.13390812 16.8710848 -15 19 C-15.99 19 -16.98 19 -18 19 C-18 18.34 -18 17.68 -18 17 C-16.52953345 16.13519692 -15.02120998 15.33455988 -13.5 14.5625 C-7.23842316 10.98573033 -3.81760962 5.99300728 0 0 Z " fill="#1D1C31" transform="translate(794,602)"/>
<path d="M0 0 C0.33 0 0.66 0 1 0 C1.91415319 3.88877867 2.13432455 7.50909382 2.125 11.5 C2.12886719 13.15515625 2.12886719 13.15515625 2.1328125 14.84375 C2.01325821 17.68492244 1.64925815 20.23807642 1 23 C-1.51563705 19.22654443 -1.23609937 17.12265107 -1.1875 12.625 C-1.18105469 11.31789063 -1.17460938 10.01078125 -1.16796875 8.6640625 C-1.02905592 5.63382452 -0.70901395 2.93815381 0 0 Z " fill="#2A2B3D" transform="translate(854,579)"/>
<path d="M0 0 C4.90972732 2.06781172 7.0586951 5.73222426 10 10 C10.61875 10.886875 11.2375 11.77375 11.875 12.6875 C13.15594865 15.32056111 13.24791659 17.10763984 13 20 C12.566875 19.401875 12.13375 18.80375 11.6875 18.1875 C10.11430618 16.00796484 10.11430618 16.00796484 8.3125 14.5 C7 13 7 13 7 9 C6.34 9 5.68 9 5 9 C1.125 2.25 1.125 2.25 0 0 Z " fill="#181A2F" transform="translate(825,420)"/>
<path d="M0 0 C5.5666313 6.36186434 6.2762644 12.80288831 6.3125 20.875 C6.31789795 21.63707764 6.3232959 22.39915527 6.32885742 23.18432617 C6.25736593 28.74263407 6.25736593 28.74263407 4 31 C4.05220703 29.54980469 4.05220703 29.54980469 4.10546875 28.0703125 C4.25201015 21.02236903 4.11340518 14.8195387 1.734375 8.09765625 C0.8045644 5.44176109 0.3663396 2.78418099 0 0 Z " fill="#0B0D18" transform="translate(792,568)"/>
<path d="M0 0 C0.66 0.33 1.32 0.66 2 1 C1.54109375 1.36351562 1.0821875 1.72703125 0.609375 2.1015625 C-2.61051262 4.73970572 -4.83323991 6.70951468 -6.9375 10.375 C-9 13 -9 13 -11.01953125 13.375 C-13.25 13.375 -13.25 13.375 -17 13 C-13.49421263 10.15314712 -9.91426465 7.45176089 -6.25 4.8125 C-2.99048626 2.56925888 -2.99048626 2.56925888 0 0 Z " fill="#DEF9FD" transform="translate(356,639)"/>
<path d="M0 0 C0.66 0.33 1.32 0.66 2 1 C2.05434116 3.5419589 2.0938339 6.08273682 2.125 8.625 C2.14175781 9.33785156 2.15851562 10.05070312 2.17578125 10.78515625 C2.21670567 15.24591757 1.7906978 18.83005338 0 23 C-0.66 23.66 -1.32 24.32 -2 25 C-1.84660156 24.21367187 -1.69320312 23.42734375 -1.53515625 22.6171875 C-0.87005679 18.12169774 -0.64586315 13.66116824 -0.4375 9.125 C-0.39431641 8.24585938 -0.35113281 7.36671875 -0.30664062 6.4609375 C-0.20130661 4.30744203 -0.10022351 2.15373936 0 0 Z " fill="#121423" transform="translate(785,465)"/>
<path d="M0 0 C0.66 0.66 1.32 1.32 2 2 C1.57122304 6.21530027 0.48525242 10.27509922 -0.5625 14.375 C-0.83191406 15.43460937 -1.10132813 16.49421875 -1.37890625 17.5859375 C-1.58386719 18.38257813 -1.78882813 19.17921875 -2 20 C-2.66 20 -3.32 20 -4 20 C-3.56615452 12.96871122 -2.25678003 6.670985 0 0 Z " fill="#252635" transform="translate(458,446)"/>
<path d="M0 0 C1.47969145 4.43907434 1.26558625 8.7867836 1.3125 13.4375 C1.34150391 14.39205078 1.37050781 15.34660156 1.40039062 16.33007812 C1.46459867 23.3880238 1.46459867 23.3880238 -1.01953125 26.66015625 C-1.67308594 27.10230469 -2.32664062 27.54445313 -3 28 C-3.625 26.1875 -3.625 26.1875 -4 24 C-3.01 22.515 -3.01 22.515 -2 21 C-1.67 21 -1.34 21 -1 21 C-1.00523682 20.39937744 -1.01047363 19.79875488 -1.01586914 19.17993164 C-1.03658014 16.47413162 -1.04964125 13.76834823 -1.0625 11.0625 C-1.07087891 10.11697266 -1.07925781 9.17144531 -1.08789062 8.19726562 C-1.09111328 7.29814453 -1.09433594 6.39902344 -1.09765625 5.47265625 C-1.10289307 4.64000244 -1.10812988 3.80734863 -1.11352539 2.94946289 C-1 1 -1 1 0 0 Z " fill="#26264C" transform="translate(798,576)"/>
<path d="M0 0 C1.65 0 3.3 0 5 0 C4.67 7.92 4.34 15.84 4 24 C2.02 24.99 2.02 24.99 0 26 C0.495 24.515 0.495 24.515 1 23 C2.75332445 16.18425987 2.15246699 8.97959996 2 2 C1.34 2 0.68 2 0 2 C0 1.34 0 0.68 0 0 Z " fill="#2B2A5A" transform="translate(784,464)"/>
<path d="M0 0 C4.39038684 0.86086017 6.91715392 1.45239277 9.6875 5.0625 C11.67213359 8.10328446 11.67213359 8.10328446 14.3125 8.875 C14.869375 8.91625 15.42625 8.9575 16 9 C16 10.32 16 11.64 16 13 C12.06014326 11.32651716 8.98587525 8.67405957 5.75 5.9375 C5.19570313 5.47794922 4.64140625 5.01839844 4.0703125 4.54492188 C2.69175775 3.38876943 1.34298593 2.19728462 0 1 C0 0.67 0 0.34 0 0 Z " fill="#17162A" transform="translate(590,462)"/>
<path d="M0 0 C0.33 0 0.66 0 1 0 C1 2.64 1 5.28 1 8 C-1.10478604 7.88590318 -3.20884577 7.75834639 -5.3125 7.625 C-6.48425781 7.55539062 -7.65601563 7.48578125 -8.86328125 7.4140625 C-12 7 -12 7 -15 5 C-10.05 5 -5.1 5 0 5 C0 3.35 0 1.7 0 0 Z " fill="#47B7DE" transform="translate(255,664)"/>
<path d="M0 0 C2.31 0 4.62 0 7 0 C7 0.99 7 1.98 7 3 C4.95928485 3.33910994 2.91737379 3.67102704 0.875 4 C-0.26195312 4.185625 -1.39890625 4.37125 -2.5703125 4.5625 C-7.99731321 5.25478255 -12.00195089 5.35202311 -17 3 C-12.90996141 1.85017398 -8.96822949 1.88905744 -4.75 1.9375 C-4.00492188 1.94201172 -3.25984375 1.94652344 -2.4921875 1.95117188 C-0.6614236 1.96290754 1.16929873 1.9808415 3 2 C2.01 1.34 1.02 0.68 0 0 Z " fill="#31305A" transform="translate(549,616)"/>
<path d="M0 0 C0.69921875 1.65234375 0.69921875 1.65234375 1 4 C-0.29296875 6.69140625 -0.29296875 6.69140625 -2.1875 9.5625 C-2.79980469 10.51253906 -3.41210938 11.46257812 -4.04296875 12.44140625 C-5.86784454 14.8272219 -7.50809302 16.35898809 -10 18 C-8.66451986 13.99355959 -6.65571845 11.05682073 -4.171875 7.7109375 C-2.72387447 5.59685673 -1.85022615 3.40897409 -1 1 C-0.67 0.67 -0.34 0.34 0 0 Z " fill="#0B0D1C" transform="translate(838,498)"/>
<path d="M0 0 C6.72045875 2.19037174 13.36724003 4.55765661 20 7 C20 7.66 20 8.32 20 9 C13.14381674 7.07443364 6.56747868 4.7527517 0 2 C0 1.34 0 0.68 0 0 Z " fill="#0E0D22" transform="translate(532,496)"/>
<path d="M0 0 C0 0.66 0 1.32 0 2 C-7.88644034 4.15408416 -14.91807467 3.937402 -23 3 C-23 2.67 -23 2.34 -23 2 C-20.10452736 1.66324721 -17.20868928 1.33048266 -14.3125 1 C-13.49587891 0.90460937 -12.67925781 0.80921875 -11.83789062 0.7109375 C-7.87139948 0.26129478 -3.99997537 -0.13034543 0 0 Z " fill="#191A32" transform="translate(794,671)"/>
<path d="M0 0 C7.62419527 2.1783415 12.25089519 5.85409966 17 12 C16.01 12 15.02 12 14 12 C12.88648234 10.81899642 11.77453613 9.63645878 10.671875 8.4453125 C7.28612446 5.51837862 3.04449728 3.8455473 -1 2 C-0.67 1.34 -0.34 0.68 0 0 Z " fill="#161723" transform="translate(774,555)"/>
<path d="M0 0 C2.6461764 2.54032934 5.05715513 5.21426889 7.4375 8 C10.06891986 11.03974363 12.73389466 13.62465066 16 16 C15.34 16.33 14.68 16.66 14 17 C8.46398272 12.39863498 3.60136502 7.53601728 -1 2 C-0.67 1.34 -0.34 0.68 0 0 Z " fill="#0C0D1E" transform="translate(470,517)"/>
<path d="M0 0 C6.46567022 1.40558048 11.45752952 4.45371104 17 8 C16.67 8.66 16.34 9.32 16 10 C10.72 7.36 5.44 4.72 0 2 C0 1.34 0 0.68 0 0 Z " fill="#141427" transform="translate(572,511)"/>
<path d="M0 0 C1.12642186 3.37926557 0.96344705 3.72928278 -0.43359375 6.79296875 C-0.75263672 7.50517578 -1.07167969 8.21738281 -1.40039062 8.95117188 C-1.74263672 9.68916016 -2.08488281 10.42714844 -2.4375 11.1875 C-2.77587891 11.93708984 -3.11425781 12.68667969 -3.46289062 13.45898438 C-4.2999411 15.30992698 -5.14885404 17.15549666 -6 19 C-7.31223496 15.06329512 -6.24296256 12.87511856 -5 9 C-4.34 9 -3.68 9 -3 9 C-3 7.68 -3 6.36 -3 5 C-2.34 5 -1.68 5 -1 5 C-0.67 3.35 -0.34 1.7 0 0 Z " fill="#3FB1D8" transform="translate(398,576)"/>
<path d="M0 0 C3.71424647 1.32792529 6.57638521 2.95583095 9.6875 5.375 C10.45449219 5.96023438 11.22148438 6.54546875 12.01171875 7.1484375 C14.00584574 9.00544377 14.97087056 10.50147185 16 13 C13.99138055 11.67853984 11.9938692 10.34352515 10 9 C9.13375 8.42121094 8.2675 7.84242188 7.375 7.24609375 C6.4675 6.62863281 5.56 6.01117187 4.625 5.375 C3.75101563 4.78460937 2.87703125 4.19421875 1.9765625 3.5859375 C1.32429687 3.06257812 0.67203125 2.53921875 0 2 C0 1.34 0 0.68 0 0 Z " fill="#0D0E1E" transform="translate(591,521)"/>
<path d="M0 0 C6.46712188 1.16194152 12.09622349 3.1248748 18 6 C18 6.66 18 7.32 18 8 C12 6 6 4 0 2 C0 1.34 0 0.68 0 0 Z " fill="#0D0F21" transform="translate(553,504)"/>
<path d="M0 0 C6.02839298 -0.39315606 11.40447021 0.66316955 17 3 C17.33 3.66 17.66 4.32 18 5 C11.56318772 4.48914188 6.04057576 3.27057103 0 1 C0 0.67 0 0.34 0 0 Z " fill="#1E212B" transform="translate(500,667)"/>
<path d="M0 0 C0.33 0 0.66 0 1 0 C0.63223832 6.30267439 -0.16625922 11.33251843 -3 17 C-3.66 16.67 -4.32 16.34 -5 16 C-3.41078475 10.63904723 -1.81027062 5.29156027 0 0 Z " fill="#181926" transform="translate(633,606)"/>
<path d="M0 0 C0.66 0 1.32 0 2 0 C2.042721 1.66611905 2.04063832 3.33382885 2 5 C1.67 5.33 1.34 5.66 1 6 C1.061875 7.27875 1.12375 8.5575 1.1875 9.875 C1.23046875 12.0546875 1.23046875 12.0546875 1 14 C-1 16 -1 16 -3 17 C-2.36934845 11.2190275 -1.34844868 5.6556294 0 0 Z " fill="#DCFAFD" transform="translate(405,552)"/>
<path d="M0 0 C5.80165739 0.97458672 10.83982722 2.01253155 16 5 C15.67 5.66 15.34 6.32 15 7 C9.76727367 5.36041242 4.84803364 3.61047965 0 1 C0 0.67 0 0.34 0 0 Z " fill="#17172A" transform="translate(532,556)"/>
<path d="M0 0 C4.23322844 0.62045463 7.52290295 2.10523559 11.3125 4.0625 C12.38113281 4.61035156 13.44976563 5.15820312 14.55078125 5.72265625 C15.35902344 6.14417969 16.16726563 6.56570313 17 7 C12.90739982 8.36420006 10.52987341 6.7664515 6.8125 5.0625 C6.15830078 4.77181641 5.50410156 4.48113281 4.83007812 4.18164062 C3.21618656 3.46304657 1.60756345 2.7326412 0 2 C0 1.34 0 0.68 0 0 Z " fill="#161724" transform="translate(514,548)"/>
<path d="M0 0 C3.88014936 1.52059907 5.73906562 3.86078531 8.25 7.125 C8.95640625 8.03507813 9.6628125 8.94515625 10.390625 9.8828125 C11.18726563 10.93082031 11.18726563 10.93082031 12 12 C11.67 12.66 11.34 13.32 11 14 C9.16056628 12.04709472 7.32840869 10.08818082 5.5 8.125 C4.97535156 7.56941406 4.45070313 7.01382813 3.91015625 6.44140625 C0 2.2265625 0 2.2265625 0 0 Z " fill="#111220" transform="translate(609,535)"/>
<path d="M0 0 C0.99 0.33 1.98 0.66 3 1 C2.34 2.65 1.68 4.3 1 6 C1.66 6.33 2.32 6.66 3 7 C-0.11547441 6.32116957 -2.85137721 5.25893098 -5.75 3.9375 C-6.54921875 3.57527344 -7.3484375 3.21304688 -8.171875 2.83984375 C-8.77515625 2.56269531 -9.3784375 2.28554688 -10 2 C-8 1 -8 1 -5 1.5625 C-4.01 1.706875 -3.02 1.85125 -2 2 C-1.34 1.34 -0.68 0.68 0 0 Z " fill="#2E2A67" transform="translate(509,538)"/>
<path d="M0 0 C-0.99 0.33 -1.98 0.66 -3 1 C-3 1.66 -3 2.32 -3 3 C-6.3 3 -9.6 3 -13 3 C-13 2.34 -13 1.68 -13 1 C-8.23947038 -0.97387813 -5.03511899 -1.0070238 0 0 Z " fill="#2B2B50" transform="translate(531,394)"/>
<path d="M0 0 C3.81530628 3.27026253 6.40632712 7.23853564 8 12 C7.67 12.99 7.34 13.98 7 15 C6.0115904 13.44333045 5.03464918 11.87937574 4.0625 10.3125 C3.51722656 9.44238281 2.97195313 8.57226562 2.41015625 7.67578125 C1.02832828 5.05375311 0.41519827 2.91689925 0 0 Z " fill="#131423" transform="translate(461,502)"/>
<path d="M0 0 C0.66 0 1.32 0 2 0 C3.296875 1.390625 3.296875 1.390625 4.75 3.25 C7.53529124 6.63213936 10.24802441 8.7666812 14 11 C13.67 11.66 13.34 12.32 13 13 C3.0915805 6.83899557 3.0915805 6.83899557 0 2 C0 1.34 0 0.68 0 0 Z " fill="#0B0D1B" transform="translate(517,484)"/>
<path d="M0 0 C2.46800047 1.15173355 4.04783565 2.04783565 6 4 C7.98356483 4.71408334 9.98315437 5.38617742 12 6 C8.67465243 7.10844919 6.37817425 6.84454356 3 6 C3 5.34 3 4.68 3 4 C0.36 3.67 -2.28 3.34 -5 3 C-4.01 2.34 -3.02 1.68 -2 1 C-1.34 1.33 -0.68 1.66 0 2 C0 1.34 0 0.68 0 0 Z " fill="#302D5B" transform="translate(588,397)"/>
<path d="M0 0 C6.73742646 -0.11044961 13.29980211 0.29867087 20 1 C20 1.33 20 1.66 20 2 C6.3667426 3.51708428 6.3667426 3.51708428 0 1 C0 0.67 0 0.34 0 0 Z " fill="#1D1D31" transform="translate(519,672)"/>
<path d="M0 0 C0.33 0.99 0.66 1.98 1 3 C-0.38866323 3.9893091 -1.78629851 4.96603078 -3.1875 5.9375 C-3.96480469 6.48277344 -4.74210938 7.02804687 -5.54296875 7.58984375 C-8.07950299 9.0456289 -10.1218182 9.59613435 -13 10 C-13 9.34 -13 8.68 -13 8 C-12.31292969 7.67386719 -11.62585938 7.34773437 -10.91796875 7.01171875 C-10.01691406 6.57472656 -9.11585938 6.13773438 -8.1875 5.6875 C-7.29417969 5.25824219 -6.40085937 4.82898438 -5.48046875 4.38671875 C-3.21068067 3.11778211 -1.70751829 1.93443102 0 0 Z " fill="#141424" transform="translate(569,607)"/>
<path d="M0 0 C-3.80208727 3.30616284 -9.83581485 7 -15 7 C-14 4 -14 4 -12.109375 2.83203125 C-4.27810031 -0.55201294 -4.27810031 -0.55201294 0 0 Z " fill="#171823" transform="translate(515,397)"/>
<path d="M0 0 C0.66 0.66 1.32 1.32 2 2 C0.42274653 2.70133599 -1.16211333 3.385583 -2.75 4.0625 C-3.63171875 4.44535156 -4.5134375 4.82820312 -5.421875 5.22265625 C-8.15256309 6.04600008 -9.36901347 5.9773992 -12 5 C-4.16581892 0.2380468 -4.16581892 0.2380468 0 0 Z " fill="#18182A" transform="translate(808,665)"/>
<path d="M0 0 C0 0.66 0 1.32 0 2 C-0.62648438 2.27714844 -1.25296875 2.55429687 -1.8984375 2.83984375 C-2.71570313 3.20207031 -3.53296875 3.56429687 -4.375 3.9375 C-5.18710937 4.29714844 -5.99921875 4.65679688 -6.8359375 5.02734375 C-8.23683785 5.6569903 -9.62625284 6.31312642 -11 7 C-12.67654729 6.72057545 -14.34608154 6.39171753 -16 6 C-13.12921701 4.08614468 -10.66588344 3.03567048 -7.4375 1.875 C-6.46683594 1.52179687 -5.49617188 1.16859375 -4.49609375 0.8046875 C-2 0 -2 0 0 0 Z " fill="#D5F8FD" transform="translate(322,661)"/>
<path d="M0 0 C0.66 0.66 1.32 1.32 2 2 C0.68 4.31 -0.64 6.62 -2 9 C-3.875 8.6875 -3.875 8.6875 -6 8 C-6.66 7.01 -7.32 6.02 -8 5 C-5.03 5.495 -5.03 5.495 -2 6 C-2 4.68 -2 3.36 -2 2 C-1.34 2 -0.68 2 0 2 C0 1.34 0 0.68 0 0 Z " fill="#2E2965" transform="translate(607,462)"/>
<path d="M0 0 C2.37801414 2.16183103 3.57488074 4.14976149 5 7 C6.3050581 8.68889872 7.63360658 10.3603279 9 12 C5.82461668 11.65978036 4.97723135 10.97533396 2.75 8.5625 C1 6 1 6 1 4 C0.34 4 -0.32 4 -1 4 C-0.67 2.68 -0.34 1.36 0 0 Z " fill="#2D2B52" transform="translate(607,532)"/>
<path d="M0 0 C1.1484375 1.671875 1.1484375 1.671875 2 4 C1.1015625 6.578125 1.1015625 6.578125 -0.375 9.25 C-1.09816406 10.58804687 -1.09816406 10.58804687 -1.8359375 11.953125 C-2.22007812 12.62859375 -2.60421875 13.3040625 -3 14 C-3.66 14 -4.32 14 -5 14 C-3.45730076 9.27934033 -1.92205381 4.58335908 0 0 Z " fill="#46B4DC" transform="translate(138,475)"/>
<path d="M0 0 C0.33 0.99 0.66 1.98 1 3 C-3.455 6.96 -3.455 6.96 -8 11 C-8.66 10.67 -9.32 10.34 -10 10 C-6.7 6.7 -3.4 3.4 0 0 Z " fill="#3BACD7" transform="translate(171,429)"/>
<path d="M0 0 C3.29680965 0.65784963 5.84117922 1.89420573 8.75 3.5625 C9.94882812 4.24505859 9.94882812 4.24505859 11.171875 4.94140625 C11.77515625 5.29074219 12.3784375 5.64007812 13 6 C10 7 10 7 7.7734375 6.07421875 C6.58621094 5.38779297 6.58621094 5.38779297 5.375 4.6875 C4.57835937 4.23761719 3.78171875 3.78773438 2.9609375 3.32421875 C1 2 1 2 0 0 Z " fill="#101124" transform="translate(505,605)"/>
<path d="M0 0 C1 2 1 2 0.36328125 4.0234375 C-1.5835528 8.38029287 -3.2276548 11.90128787 -7 15 C-5.45454854 9.52067211 -2.84456788 4.88570819 0 0 Z " fill="#42B2D9" transform="translate(146,460)"/>
<path d="M0 0 C2.64752004 2.57784846 4.94432065 4.91648098 7 8 C6.625 10.1875 6.625 10.1875 6 12 C3 7.25 3 7.25 3 5 C2.34 5 1.68 5 1 5 C0.34 3.68 -0.32 2.36 -1 1 C-0.67 0.67 -0.34 0.34 0 0 Z " fill="#0E0F23" transform="translate(837,540)"/>
<path d="M0 0 C2.97 0.99 5.94 1.98 9 3 C9 3.66 9 4.32 9 5 C6 6 6 6 3.95703125 5.22265625 C3.24933594 4.83980469 2.54164063 4.45695312 1.8125 4.0625 C1.09707031 3.68222656 0.38164063 3.30195313 -0.35546875 2.91015625 C-0.89816406 2.60980469 -1.44085937 2.30945313 -2 2 C-1.34 1.34 -0.68 0.68 0 0 Z " fill="#21213A" transform="translate(767,444)"/>
<path d="M0 0 C0.33 0 0.66 0 1 0 C1.23990744 4.07842654 0.69726294 7.26602153 -1 11 C-2.32 11.33 -3.64 11.66 -5 12 C-3.35 8.04 -1.7 4.08 0 0 Z " fill="#DAF9FE" transform="translate(396,584)"/>
<path d="M0 0 C0.66 0.99 1.32 1.98 2 3 C1.34 3 0.68 3 0 3 C-0.33 5.31 -0.66 7.62 -1 10 C-2.65 10.66 -4.3 11.32 -6 12 C-4.02 8.04 -2.04 4.08 0 0 Z " fill="#45B6DE" transform="translate(297,542)"/>
<path d="M0 0 C3.15330554 0.60694155 5.18888867 1.6416665 7.75 3.5625 C8.67039062 4.24505859 8.67039062 4.24505859 9.609375 4.94140625 C10.29773438 5.46541016 10.29773438 5.46541016 11 6 C10.01 6.33 9.02 6.66 8 7 C5.95703125 5.8203125 5.95703125 5.8203125 3.8125 4.125 C3.09707031 3.57070313 2.38164062 3.01640625 1.64453125 2.4453125 C1.10183594 1.96835937 0.55914062 1.49140625 0 1 C0 0.67 0 0.34 0 0 Z " fill="#0F1020" transform="translate(463,646)"/>
<path d="M0 0 C0.66 0 1.32 0 2 0 C1.01 3.96 0.02 7.92 -1 12 C-1.33 12 -1.66 12 -2 12 C-2.05422947 10.5629191 -2.09289723 9.12524538 -2.125 7.6875 C-2.14820313 6.88699219 -2.17140625 6.08648437 -2.1953125 5.26171875 C-2 3 -2 3 0 0 Z " fill="#CEF5FB" transform="translate(131,490)"/>
<path d="M0 0 C2.375 0.25 2.375 0.25 5 1 C6.125 3 6.125 3 7 5 C7.99 5.33 8.98 5.66 10 6 C9.67 6.66 9.34 7.32 9 8 C7.125 7.75 7.125 7.75 5 7 C3.9375 5.125 3.9375 5.125 3 3 C1.4587688 1.29078411 1.4587688 1.29078411 0 0 Z " fill="#282553" transform="translate(584,456)"/>
<path d="M0 0 C1.64936913 0.78427352 3.29441127 1.57765259 4.9375 2.375 C5.85402344 2.81585937 6.77054687 3.25671875 7.71484375 3.7109375 C10 5 10 5 11 7 C6.80639551 6.32902328 3.59665648 4.1441606 0 2 C0 1.34 0 0.68 0 0 Z " fill="#0F0F1E" transform="translate(475,653)"/>
<path d="M0 0 C-3.5087188 3.09592835 -6.49197399 4.74194623 -11 6 C-11 5.34 -11 4.68 -11 4 C-10.01 4 -9.02 4 -8 4 C-8 3.34 -8 2.68 -8 2 C-4.77208445 -0.1519437 -3.71599191 -0.20086443 0 0 Z " fill="#39B1DC" transform="translate(336,653)"/>
<path d="M0 0 C3.3 0.33 6.6 0.66 10 1 C10 1.66 10 2.32 10 3 C8.375 3.6875 8.375 3.6875 6 4 C2.75 2.5625 2.75 2.5625 0 1 C0 0.67 0 0.34 0 0 Z " fill="#22223B" transform="translate(506,545)"/>
<path d="M0 0 C0.66 0 1.32 0 2 0 C1.43454163 3.95820859 0.19097652 6.6659053 -2 10 C-2.6875 8.375 -2.6875 8.375 -3 6 C-1.5625 2.75 -1.5625 2.75 0 0 Z " fill="#181928" transform="translate(462,438)"/>
<path d="M0 0 C1 3 1 3 0.22265625 4.82421875 C-0.8515625 6.54947917 -1.92578125 8.27473958 -3 10 C-3.66 10 -4.32 10 -5 10 C-3.66511872 6.40608886 -2.03977277 3.24509304 0 0 Z " fill="#0A0C1C" transform="translate(847,625)"/>
<path d="M0 0 C2.33333823 2.12121657 3.9148886 4.01594365 5 7 C4.546875 9.12890625 4.546875 9.12890625 4 11 C3.32591692 9.73308493 2.66099503 8.46129251 2 7.1875 C1.62875 6.47980469 1.2575 5.77210938 0.875 5.04296875 C0 3 0 3 0 0 Z " fill="#0F1120" transform="translate(845,552)"/>
<path d="M0 0 C0 0.66 0 1.32 0 2 C1.65 2 3.3 2 5 2 C1.5980513 4.09350689 -1.05272412 4.17942163 -5 4 C-5 3.01 -5 2.02 -5 1 C-2 0 -2 0 0 0 Z " fill="#2E2C50" transform="translate(518,395)"/>
<path d="M0 0 C0.33 0.99 0.66 1.98 1 3 C0.00390625 4.82421875 0.00390625 4.82421875 -1.4375 6.6875 C-1.91058594 7.31011719 -2.38367188 7.93273437 -2.87109375 8.57421875 C-3.24363281 9.04472656 -3.61617187 9.51523437 -4 10 C-4.66 9.34 -5.32 8.68 -6 8 C-4.02 5.36 -2.04 2.72 0 0 Z " fill="#141523" transform="translate(841,636)"/>
<path d="M0 0 C0.66 0.66 1.32 1.32 2 2 C0.68 2.33 -0.64 2.66 -2 3 C-2 3.66 -2 4.32 -2 5 C-4.64 4.34 -7.28 3.68 -10 3 C-7.7836577 2.44591442 -5.55851305 1.91786289 -3.3125 1.5 C-1.04844958 1.22901669 -1.04844958 1.22901669 0 0 Z " fill="#2A2B54" transform="translate(782,618)"/>
<path d="M0 0 C3.09592835 3.5087188 4.74194623 6.49197399 6 11 C5.34 11 4.68 11 4 11 C1.63496961 8.00893216 0.08446819 5.97138418 -0.25 2.125 C-0.1675 1.42375 -0.085 0.7225 0 0 Z " fill="#302D62" transform="translate(621,551)"/>
<path d="M0 0 C2 1 2 1 3.1875 3.3125 C4.03624754 6.11989571 3.99928333 7.301935 3 10 C1.5 8.6875 1.5 8.6875 0 7 C0 4.66666667 0 2.33333333 0 0 Z " fill="#302D5B" transform="translate(461,496)"/>
<path d="M0 0 C4.94026549 4.71570796 4.94026549 4.71570796 5.125 8.6875 C5.08375 9.450625 5.0425 10.21375 5 11 C0 4.63636364 0 4.63636364 0 0 Z " fill="#111223" transform="translate(833,429)"/>
<path d="M0 0 C1.5 1.375 1.5 1.375 3 3 C3 3.66 3 4.32 3 5 C3.31478446 6.33783393 3.64587656 7.67203709 4 9 C2.68 8.67 1.36 8.34 0 8 C0 5.36 0 2.72 0 0 Z " fill="#302D5F" transform="translate(824,417)"/>
<path d="M0 0 C0.33 0.99 0.66 1.98 1 3 C-0.62339805 4.70884005 -2.29319053 6.37446717 -4 8 C-4.66 8 -5.32 8 -6 8 C-4.55746343 4.63408134 -2.66735273 2.48952921 0 0 Z " fill="#252730" transform="translate(480,415)"/>
<path d="M0 0 C4.75 0.75 4.75 0.75 7 3 C6.67 3.99 6.34 4.98 6 6 C5.34 5.67 4.68 5.34 4 5 C4 4.34 4 3.68 4 3 C2.68 2.67 1.36 2.34 0 2 C0 1.34 0 0.68 0 0 Z " fill="#1E1F33" transform="translate(817,413)"/>
<path d="M0 0 C4.05606165 0.46800711 7.46588679 0.87953208 11 3 C10.67 3.66 10.34 4.32 10 5 C5.05 3.02 5.05 3.02 0 1 C0 0.67 0 0.34 0 0 Z " fill="#0D0E1F" transform="translate(590,399)"/>
<path d="M0 0 C0.33 0.66 0.66 1.32 1 2 C-0.61000397 5.13950774 -2.38499232 7.63404067 -5 10 C-5.66 9.67 -6.32 9.34 -7 9 C-4.69 6.03 -2.38 3.06 0 0 Z " fill="#D2F8FD" transform="translate(378,616)"/>
<path d="M0 0 C3.36591866 1.44253657 5.51047079 3.33264727 8 6 C7.67 6.99 7.34 7.98 7 9 C5.83037314 7.69013727 4.66437056 6.3770374 3.5 5.0625 C2.8503125 4.33160156 2.200625 3.60070312 1.53125 2.84765625 C0 1 0 1 0 0 Z " fill="#0B0C1C" transform="translate(564,572)"/>
<path d="M0 0 C1.258125 -0.04125 2.51625 -0.0825 3.8125 -0.125 C4.52019531 -0.14820313 5.22789062 -0.17140625 5.95703125 -0.1953125 C8 0 8 0 11 2 C6.91556885 3.53166168 3.20544343 2.63081652 -1 2 C-0.67 1.34 -0.34 0.68 0 0 Z " fill="#292956" transform="translate(531,555)"/>
<path d="M0 0 C0.33 0.99 0.66 1.98 1 3 C-1.31 4.65 -3.62 6.3 -6 8 C-6 5 -6 5 -4.6875 3.61328125 C-3.125 2.40885417 -1.5625 1.20442708 0 0 Z " fill="#0F101F" transform="translate(826,516)"/>
<path d="M0 0 C0.6875 1.6875 0.6875 1.6875 1 4 C-0.4375 6.75 -0.4375 6.75 -2 9 C-2.66 8.34 -3.32 7.68 -4 7 C-1.125 1.125 -1.125 1.125 0 0 Z " fill="#181A2A" transform="translate(838,498)"/>
<path d="M0 0 C0.66 0.33 1.32 0.66 2 1 C0.35 2.98 -1.3 4.96 -3 7 C-4.32 6.67 -5.64 6.34 -7 6 C-4.69 4.02 -2.38 2.04 0 0 Z " fill="#111120" transform="translate(781,491)"/>
<path d="M0 0 C1.258125 0.12375 2.51625 0.2475 3.8125 0.375 C4.87404297 0.47941406 4.87404297 0.47941406 5.95703125 0.5859375 C8 1 8 1 11 3 C8.03 3 5.06 3 2 3 C2 2.34 2 1.68 2 1 C1.34 0.67 0.68 0.34 0 0 Z " fill="#38AFD9" transform="translate(298,396)"/>
<path d="M0 0 C1.13643966 3.40931897 0.86747764 4.00335456 -0.4375 7.1875 C-0.86869141 8.26064453 -0.86869141 8.26064453 -1.30859375 9.35546875 C-1.53675781 9.89816406 -1.76492188 10.44085937 -2 11 C-2.33 11 -2.66 11 -3 11 C-3.39253254 6.55129785 -2.15305957 3.85756507 0 0 Z " fill="#312D66" transform="translate(850,611)"/>
<path d="M0 0 C0.66 0.33 1.32 0.66 2 1 C0.9024777 3.99324263 0.32317108 4.84610901 -2.625 6.25 C-3.40875 6.4975 -4.1925 6.745 -5 7 C-3.35 4.69 -1.7 2.38 0 0 Z " fill="#2C2965" transform="translate(477,593)"/>
<path d="M0 0 C3.60924648 0.34928192 4.27112248 1.27112248 7 4 C2.545 3.01 2.545 3.01 -2 2 C-1.34 1.34 -0.68 0.68 0 0 Z " fill="#040717" transform="translate(814,524)"/>
<path d="M0 0 C0.66 0.33 1.32 0.66 2 1 C0.02 3.97 0.02 3.97 -2 7 C-3.32 6.67 -4.64 6.34 -6 6 C-4 4 -2 2 0 0 Z " fill="#2E2961" transform="translate(782,492)"/>
<path d="M0 0 C2.31 0.66 4.62 1.32 7 2 C7 3.32 7 4.64 7 6 C3.63279613 4.60667426 2.0140476 3.0210714 0 0 Z " fill="#1E1F26" transform="translate(599,469)"/>
<path d="M0 0 C0.66 0 1.32 0 2 0 C0.84414715 3.91211733 -0.35534962 6.8745041 -3 10 C-3 8.02 -3 6.04 -3 4 C-2.01 3.67 -1.02 3.34 0 3 C0 2.01 0 1.02 0 0 Z " fill="#D1F6FC" transform="translate(143,461)"/>
<path d="M0 0 C0.99 0.33 1.98 0.66 3 1 C1.02 3.31 -0.96 5.62 -3 8 C-3.33 6.68 -3.66 5.36 -4 4 C-2.0625 1.75 -2.0625 1.75 0 0 Z " fill="#DDFAFE" transform="translate(161,436)"/>
<path d="M0 0 C2.31 0.66 4.62 1.32 7 2 C6.01 3.485 6.01 3.485 5 5 C3.02 4.01 1.04 3.02 -1 2 C-0.67 1.34 -0.34 0.68 0 0 Z " fill="#1F1F32" transform="translate(486,659)"/>
<path d="M0 0 C-2.97 2.475 -2.97 2.475 -6 5 C-6.33 4.01 -6.66 3.02 -7 2 C-6 0 -6 0 -4.0625 -0.6875 C-2 -1 -2 -1 0 0 Z " fill="#3FAFD8" transform="translate(356,640)"/>
<path d="M0 0 C0.66 0.33 1.32 0.66 2 1 C-2.625 5 -2.625 5 -6 5 C-6 4.34 -6 3.68 -6 3 C-4.03533587 1.93224776 -2.03144641 0.93446535 0 0 Z " fill="#121321" transform="translate(782,616)"/>
<path d="M0 0 C2 3 2 3 2 5 C-0.31 5.33 -2.62 5.66 -5 6 C-4.67 5.34 -4.34 4.68 -4 4 C-3.34 4 -2.68 4 -2 4 C-1.34 2.68 -0.68 1.36 0 0 Z " fill="#2B265E" transform="translate(790,611)"/>
<path d="M0 0 C0.33 0.99 0.66 1.98 1 3 C-0.9375 6.1875 -0.9375 6.1875 -3 9 C-3.33 8.01 -3.66 7.02 -4 6 C-2.0625 2.8125 -2.0625 2.8125 0 0 Z " fill="#12121E" transform="translate(794,602)"/>
<path d="M0 0 C0.33 0.99 0.66 1.98 1 3 C-0.65 4.65 -2.3 6.3 -4 8 C-4.66 7.67 -5.32 7.34 -6 7 C-4.02 4.69 -2.04 2.38 0 0 Z " fill="#312E66" transform="translate(471,601)"/>
<path d="M0 0 C1.32 0.33 2.64 0.66 4 1 C4 1.99 4 2.98 4 4 C3.01 3.67 2.02 3.34 1 3 C0.01 3.33 -0.98 3.66 -2 4 C-1.34 2.68 -0.68 1.36 0 0 Z " fill="#1B1C22" transform="translate(479,587)"/>
<path d="M0 0 C0.66 0.33 1.32 0.66 2 1 C-1.465 3.97 -1.465 3.97 -5 7 C-5 6.01 -5 5.02 -5 4 C-2.5 1.8125 -2.5 1.8125 0 0 Z " fill="#0D0D22" transform="translate(487,410)"/>
<path d="M0 0 C-2.76223278 2.76223278 -5.20706617 2.57856291 -9 3 C-9 2.34 -9 1.68 -9 1 C-5.8035914 -0.06546953 -3.34252724 -0.07427838 0 0 Z " fill="#0D0F20" transform="translate(527,394)"/>
</svg>
